<svg id="Capa_1" data-name="Capa 1" xmlns="http://www.w3.org/2000/svg" viewBox="0 0 75 87.05"><defs><style>.cls-1{fill:#57636e;}.cls-2{fill:#74b6ee;}.cls-3{fill:#fff;}.cls-4{fill:#f9ceb9;}.cls-5{fill:#f2b08b;}.cls-6{fill:#231f20;}.cls-7{fill:none;stroke:#f7f7f7;stroke-miterlimit:10;}.cls-8{fill:#f4efef;}.cls-9{fill:#f2ebeb;}</style></defs><title>Academia-Digital-Escudo</title><path class="cls-1" d="M50,93.05S16.49,81.32,13.14,46.13V11s57-8.38,73.72,1.67V49.48S81.83,84.67,50,93.05Z" transform="translate(-12.5 -6)"/><path class="cls-2" d="M86.86,31.89V12.14C70.11-.33,13.14,10.06,13.14,10.06V31.89Z" transform="translate(-12.5 -6)"/><path class="cls-3" d="M61.92,14.17l.09,0a.34.34,0,0,1,.15.06l.05,0v-.06l0-.06,0-.07a.64.64,0,0,0,.06-.24l0-.16-.1.13a1.74,1.74,0,0,1-.18.22l-.08.07Z" transform="translate(-12.5 -6)"/><path class="cls-3" d="M62.17,16.39l-.06,0v.06a.69.69,0,0,1,0,.25s0,.08,0,.12v.1l.08-.06a2.65,2.65,0,0,0,.34-.33l0-.06h-.08Z" transform="translate(-12.5 -6)"/><path class="cls-3" d="M62.12,13.46v.21l.07-.06a2.17,2.17,0,0,0,.31-.37l0-.06h-.08l-.3,0H62.1v.06A1,1,0,0,1,62.12,13.46Z" transform="translate(-12.5 -6)"/><path class="cls-3" d="M62,17.27l-.08.06-.08,0,.08,0a.6.6,0,0,1,.14.07l0,0,0-.05,0-.06a.16.16,0,0,0,0-.07.72.72,0,0,0,.09-.24l0-.14-.11.11A2,2,0,0,1,62,17.27Z" transform="translate(-12.5 -6)"/><path class="cls-3" d="M61.72,16.68v.1l.07-.07a3.47,3.47,0,0,0,.25-.29l0-.06H62l-.12,0-.11,0h-.06v.06a1,1,0,0,1,0,.17Z" transform="translate(-12.5 -6)"/><path class="cls-3" d="M61.73,13.34a.92.92,0,0,0,0,.16v.09l.07-.07A2.2,2.2,0,0,0,62,13.2l0-.06H62l-.12,0H61.7v.05C61.72,13.22,61.72,13.28,61.73,13.34Z" transform="translate(-12.5 -6)"/><path class="cls-3" d="M61.68,14.12h0l.12,0h.08v0a1.36,1.36,0,0,0,0-.29V13.7l-.08.11a1.06,1.06,0,0,1-.19.24l-.07,0Z" transform="translate(-12.5 -6)"/><path class="cls-3" d="M61.88,16.9,61.8,17a1.47,1.47,0,0,1-.22.21l-.07,0,.08,0h0l.11,0,.08,0,0,0a2,2,0,0,0,0-.29Z" transform="translate(-12.5 -6)"/><path class="cls-3" d="M61.37,13.11h0v.05a.88.88,0,0,1,0,.16.61.61,0,0,0,0,.14l0,.1.06-.08a2,2,0,0,0,.19-.31l0-.06h-.28Z" transform="translate(-12.5 -6)"/><path class="cls-3" d="M61.35,16.6v.1l.07-.07a1.23,1.23,0,0,0,.22-.29l0-.06h-.06l-.21,0h-.06v.05a.86.86,0,0,1,0,.16A.65.65,0,0,0,61.35,16.6Z" transform="translate(-12.5 -6)"/><path class="cls-3" d="M61.47,14l.07,0V14a1.13,1.13,0,0,0-.05-.32l0-.08-.05.07c-.06.07-.1.13-.15.18h0v-.07l0-.18,0-.1-.06.08a.36.36,0,0,1-.08.09l0,0,0,0,.11.08.06.05h0l0,0h0Z" transform="translate(-12.5 -6)"/><path class="cls-3" d="M61.43,16.75l-.06.06c0,.05-.1.11-.16.16l0,0v-.07c0-.06,0-.13,0-.19v-.1l-.07.07-.08.09,0,0,.19.19h0a2,2,0,0,0,.18.15l.06,0v-.08a1.56,1.56,0,0,0,0-.31Z" transform="translate(-12.5 -6)"/><path class="cls-3" d="M60.93,16.33v0s0,.05,0,.08,0,.09.06.09.06,0,.13-.13a.86.86,0,0,0,.07-.1l0-.06h-.07l-.22,0H60.9l0,.06S60.93,16.31,60.93,16.33Z" transform="translate(-12.5 -6)"/><path class="cls-3" d="M60.92,13.23v0l0,.07s0,.08.06.08.06,0,.13-.14l.05-.11,0-.06h-.36l0,.06Z" transform="translate(-12.5 -6)"/><path class="cls-3" d="M60.87,10.15l-.09.12a2.11,2.11,0,0,1-.19.23.24.24,0,0,1-.08.06l-.08.06.1,0,.14.06,0,0,0-.05a.14.14,0,0,1,0-.06s0,0,0-.07a1.07,1.07,0,0,0,.07-.25Z" transform="translate(-12.5 -6)"/><path class="cls-3" d="M61.05,9.62H61l-.3,0h-.06v.06a.7.7,0,0,1,0,.25v.22l.07-.07a2.6,2.6,0,0,0,.3-.36Z" transform="translate(-12.5 -6)"/><path class="cls-3" d="M60.83,16.2h-.06l-.2-.05-.07,0,0,.08a.35.35,0,0,0,.07.15s0,0,.07,0a.08.08,0,0,0,.07-.07l.06-.08Z" transform="translate(-12.5 -6)"/><path class="cls-3" d="M60.58,13.3a.09.09,0,0,0,.07,0s.06-.05.07-.08l.05-.08,0-.06h-.07l-.2,0h-.07l0,.07A.49.49,0,0,0,60.58,13.3Z" transform="translate(-12.5 -6)"/><path class="cls-3" d="M60.25,9.94l0,.1.06-.08a1.77,1.77,0,0,0,.21-.32l0-.05h-.36v.06a1,1,0,0,1,0,.18A.76.76,0,0,0,60.25,9.94Z" transform="translate(-12.5 -6)"/><path class="cls-3" d="M60.11,10.54l.09,0h0l.12,0,.08,0v0a1.3,1.3,0,0,0,0-.29v-.14l-.07.12a1.1,1.1,0,0,1-.2.23Z" transform="translate(-12.5 -6)"/><path class="cls-3" d="M60.29,13.31v0h0l0,0,0,0h0l0,.07,0,0,0,.06h.25l0-.07Z" transform="translate(-12.5 -6)"/><path class="cls-3" d="M60.34,16.49l0-.16v0h0l0-.06-.06.07-.05.06,0,0,0,.05.18,0Z" transform="translate(-12.5 -6)"/><path class="cls-3" d="M60.16,9.55h-.33v.06a.41.41,0,0,1,0,.16.71.71,0,0,0,0,.14l0,.09L60,9.93a1.29,1.29,0,0,0,.19-.32Z" transform="translate(-12.5 -6)"/><path class="cls-3" d="M59.78,16.09h0l0,.1,0,.07,0-.05.05-.07.06-.07.06-.06h-.34l0,.07S59.78,16.07,59.78,16.09Z" transform="translate(-12.5 -6)"/><path class="cls-3" d="M59.75,13.11h0l.06.1,0,.07,0-.06a.25.25,0,0,0,0-.07l0-.08L60,13h-.34l0,.06Z" transform="translate(-12.5 -6)"/><path class="cls-3" d="M59.77,10.35h0l.2.13.07,0v-.08a1.46,1.46,0,0,0,0-.31L60,10l0,.07a1.63,1.63,0,0,1-.14.18h0v-.06l0-.19,0-.1-.06.08-.08.1,0,0,0,0,.11.09Z" transform="translate(-12.5 -6)"/><path class="cls-3" d="M59.45,9.56h-.07l0,.06s0,0,0,.06l0,0a.64.64,0,0,0,0,.07c0,.05,0,.09.07.09s.06,0,.12-.15a.93.93,0,0,0,.05-.1l0-.07h-.29Z" transform="translate(-12.5 -6)"/><path class="cls-3" d="M59.34,15.43a.2.2,0,0,0,.11,0h.08s.14,0,.14-.1h0v0l-.11-.08,0,0,0,.05h0l0,0h0a.07.07,0,0,1,0-.09l0-.06h-.3l0,.05A.31.31,0,0,0,59.34,15.43Z" transform="translate(-12.5 -6)"/><path class="cls-3" d="M59.23,12.52l.09,0,.11,0s.11-.06.12-.1l0,0,0,0-.12-.08-.05,0v.07h0l0,0h0a.07.07,0,0,1,0-.09l0-.06h-.11a.4.4,0,0,0-.15,0h0l0,.05A.33.33,0,0,0,59.23,12.52Z" transform="translate(-12.5 -6)"/><path class="cls-3" d="M59.1,9.74s0,0,.06,0,.07-.06.07-.09l.06-.08,0-.06h-.07l-.2,0H59l0,.07C59,9.66,59.06,9.72,59.1,9.74Z" transform="translate(-12.5 -6)"/><path class="cls-3" d="M58.8,9.72h0l0-.07,0,.06v0l-.05.07,0,.09.25,0,0-.06,0-.09Z" transform="translate(-12.5 -6)"/><path class="cls-3" d="M58.26,9.56h0l.06.1,0,.06,0-.06,0-.07,0-.07.05-.07H58.2l0,.06Z" transform="translate(-12.5 -6)"/><path class="cls-3" d="M58.07,8.84v0l0,0-.12-.07,0,0v.06h0v0h0s0,0,0,0h0s0-.06,0-.09l0-.05h-.11l-.14,0,0,0,0,0a.35.35,0,0,0,.2.21h.08l.11,0C58,8.92,58.07,8.88,58.07,8.84Z" transform="translate(-12.5 -6)"/><path class="cls-3" d="M57.14,15.87l-.07.13c0,.08-.09.17-.15.25a.27.27,0,0,1-.07.08l-.07.06.1,0a.33.33,0,0,1,.15,0l0,0v-.05a775574970055.13,775574970055.13,0,0,1,0-.14,1.19,1.19,0,0,0,0-.25Z" transform="translate(-12.5 -6)"/><path class="cls-3" d="M56.86,15.35H56.8l0,.05a1,1,0,0,1,0,.25.36.36,0,0,0,0,.11v.1l.06-.08a2.06,2.06,0,0,0,.25-.4l0-.07h-.08Z" transform="translate(-12.5 -6)"/><path class="cls-3" d="M56.72,15.93l-.06.12a1,1,0,0,1-.16.26l0,.06h.32v0a1.78,1.78,0,0,0,0-.29Z" transform="translate(-12.5 -6)"/><path class="cls-3" d="M56.5,15.76l0,.09,0-.08c.06-.12.11-.23.16-.35l0-.06H56.4l0,0a1,1,0,0,1,0,.17A.94.94,0,0,0,56.5,15.76Z" transform="translate(-12.5 -6)"/><path class="cls-3" d="M56.27,16l0-.08-.05.08a.68.68,0,0,1-.11.19v0l0-.06c0-.06,0-.11-.06-.18l0-.1,0,.09-.06.11,0,0,.23.12h.05l.21.09.08,0,0-.08A1.32,1.32,0,0,0,56.27,16Z" transform="translate(-12.5 -6)"/><path class="cls-3" d="M56.09,15.65a.31.31,0,0,0,0,.13l0,.09.05-.08a1.4,1.4,0,0,0,.13-.34l0-.07h-.06l-.22,0h0l0,.05S56.07,15.59,56.09,15.65Z" transform="translate(-12.5 -6)"/><path class="cls-3" d="M55.91,15.52l0-.07h-.07l-.21,0-.07,0,0,.05,0,.06,0,0,0,.07s0,.08.07.08.07-.05.11-.17Z" transform="translate(-12.5 -6)"/><path class="cls-3" d="M55.25,15.54h-.07l0,.06a.35.35,0,0,0,.12.14.09.09,0,0,0,.05,0c.06,0,.07-.06.08-.09l0-.09,0-.07h-.27Z" transform="translate(-12.5 -6)"/><path class="cls-3" d="M55,15.79v0h0l0-.06,0,.07h0a.14.14,0,0,1,0,.07l0,0,0,.07h.25l0-.06Z" transform="translate(-12.5 -6)"/><path class="cls-3" d="M54.61,15.56l-.14,0-.07,0,.05.05,0,0h0a.31.31,0,0,0,.07.09l0,.06,0-.06,0-.08a.3.3,0,0,1,0-.08l0-.07h-.12Z" transform="translate(-12.5 -6)"/><path class="cls-3" d="M54.17,15h0L54,14.91H54V15h0v0a0,0,0,0,1,0,0h0a.08.08,0,0,1,0-.09l0-.06h-.06a.67.67,0,0,0-.19,0l0,0,0,0a.34.34,0,0,0,.22.17h.05a.23.23,0,0,0,.14,0s.12-.08.11-.13h0Z" transform="translate(-12.5 -6)"/><path class="cls-2" d="M62.63,15.67a1.56,1.56,0,0,0-.64-.09h-.35l0,.07,0,.07a.13.13,0,0,1-.07.14v0a.19.19,0,0,0,0-.15.18.18,0,0,0-.06-.1h0a.79.79,0,0,1-.22-.05l-.08,0,0,.08a.22.22,0,0,1,0,.21v-.07a.28.28,0,0,0,0-.09.5.5,0,0,0,0-.12v0h0a1.18,1.18,0,0,1-.19-.1l-.08,0,0,.09v.07a.26.26,0,0,1-.11.22l0-.06A.31.31,0,0,0,61,15.5a.41.41,0,0,0,0-.19h0l-.16-.1-.14-.09h0L60.55,15v0h0A4,4,0,0,0,59,14.59l-.15,0-.12,0h0v0a2.87,2.87,0,0,0-.9,2v0h0l.09.06.13.07.19.15a2.22,2.22,0,0,0,.35.25.93.93,0,0,0,.42.1,2.2,2.2,0,0,0,.36,0h0l.29,0,.29,0a2.34,2.34,0,0,1,.64.18l.3.15a1.92,1.92,0,0,0,.35.18,1,1,0,0,0,.38.09h0c.07,0,.3,0,.34-.11s0-.06,0-.07-.08-.06-.14-.08h0l-.09,0h0l0,0-.2-.07A1.75,1.75,0,0,1,61,17h0a1.14,1.14,0,0,0-.66-.36,4.67,4.67,0,0,1-1.37-.5,0,0,0,0,1,0,0,.05.05,0,0,1,0,0,2.7,2.7,0,0,1,.63-.07,3.27,3.27,0,0,1,.7.08,4.24,4.24,0,0,0,.85.12,3.31,3.31,0,0,1,.68.08l.22.06a2.28,2.28,0,0,0,.56.1h.07a.34.34,0,0,0,.25-.1.29.29,0,0,0,0-.24A.45.45,0,0,0,62.63,15.67Zm-3.58-.17a.3.3,0,0,1,0-.19.29.29,0,0,0,.05.25.23.23,0,0,0,.07.07l.06.07A.44.44,0,0,1,59.05,15.5Zm.64.09a.23.23,0,0,1-.07.07.32.32,0,0,0,.1-.13S59.7,15.57,59.69,15.59Zm.19-.15-.08,0-.06,0v.09l-.06,0a.48.48,0,0,1-.23.07h-.08a.28.28,0,0,1-.2-.28h-.08v0l-.11.06,0,0h-.07a.15.15,0,0,1-.11-.15c0-.17.21-.26.37-.27a.52.52,0,0,0-.2.09c-.11.08-.15.17-.11.24a.1.1,0,0,0,.09.06h0a.44.44,0,0,1,.34-.15h.06a.59.59,0,0,1,.31.17.66.66,0,0,0,.28.17Zm.69,0a.44.44,0,0,1,0-.1.5.5,0,0,0,0-.12v-.07A.36.36,0,0,1,60.57,15.45Zm2,.59s0,0,0,0h0a.07.07,0,0,1-.08-.08h0l.06,0a0,0,0,0,1,0,0A.06.06,0,0,1,62.54,16Zm0-.2-.12,0a.27.27,0,0,1,.17.08h0Z" transform="translate(-12.5 -6)"/><path class="cls-2" d="M61.88,12.37l-.26,0h-.08l.05.07,0,.06a.14.14,0,0,1,0,.15v0a.25.25,0,0,0,0-.15.29.29,0,0,0-.07-.1h0a.66.66,0,0,1-.21,0l-.09,0,0,.08a.26.26,0,0,1,0,.21v-.08a.25.25,0,0,0,0-.08.28.28,0,0,0,0-.12v0h0l-.2-.08-.09,0,0,.09a.2.2,0,0,1,0,.07.26.26,0,0,1-.08.23.14.14,0,0,1,0-.06.58.58,0,0,0,0-.14.57.57,0,0,0,0-.18v0h0l-.16-.08L60.53,12,60.4,12v0h0a3.89,3.89,0,0,0-1.53-.26h-.38a.8.8,0,0,0-.36.07.46.46,0,0,0-.14.32.49.49,0,0,1-.08.25.52.52,0,0,1-.11.1,1.42,1.42,0,0,0-.13.12.37.37,0,0,0,0,.34s0,.05,0,.07a.52.52,0,0,1,0,.25.8.8,0,0,0,0,.21c0,.24.22.34.4.41l.14.07.2.12a2,2,0,0,0,.37.21.81.81,0,0,0,.31.06,1.93,1.93,0,0,0,.47-.08h0a2.33,2.33,0,0,1,.53-.07h0a2.85,2.85,0,0,1,.66.11l.31.12a1.66,1.66,0,0,0,.37.14.87.87,0,0,0,.31.05h.09c.07,0,.29-.05.33-.16a.08.08,0,0,0,0-.07.18.18,0,0,0-.15-.05h0l-.09,0-.06,0h0l-.23-.06a1.82,1.82,0,0,1-.51-.32h0a1.29,1.29,0,0,0-.7-.29,4.64,4.64,0,0,1-1.42-.33s0,0,0-.05a0,0,0,0,1,0,0,3.18,3.18,0,0,1,1-.16l.36,0a4,4,0,0,0,.56,0h.3l.29,0,.39,0,.22,0a3.42,3.42,0,0,0,.45,0h.19a.39.39,0,0,0,.24-.13.32.32,0,0,0,0-.24.45.45,0,0,0-.34-.34,1,1,0,0,0-.31,0ZM59,12.62a.27.27,0,0,1,0-.18.29.29,0,0,0,.08.24l.08.06.07.06A.39.39,0,0,1,59,12.62Zm.64,0-.06.08a.42.42,0,0,0,.09-.14Zm.16-.17H59.7l-.07,0v.09l-.07,0a.41.41,0,0,1-.26.09h0a.28.28,0,0,1-.23-.25H59v0l-.1.06,0,0h-.07a.13.13,0,0,1-.12-.14.18.18,0,0,1,.07-.17A.47.47,0,0,1,59,12a.55.55,0,0,0-.19.12c-.1.09-.13.18-.08.25a.11.11,0,0,0,.09.05h.06a.45.45,0,0,1,.38-.19h0a.61.61,0,0,1,.32.13.76.76,0,0,0,.3.14A.12.12,0,0,1,59.76,12.47Zm.7-.07a.18.18,0,0,1,0-.1s0-.08,0-.12,0,0,0-.07A.33.33,0,0,1,60.46,12.4Zm2.08.2h0l-.07,0-.12,0A.28.28,0,0,1,62.54,12.6Zm-.19.14h0a.07.07,0,0,1,.06,0h0a.08.08,0,0,1,0,.07.05.05,0,0,1,0,0h0a.11.11,0,0,1-.07,0A.07.07,0,0,1,62.35,12.74Z" transform="translate(-12.5 -6)"/><path class="cls-2" d="M56.07,9.89c0,.23.22.33.4.41l.14.06.2.13a2.64,2.64,0,0,0,.37.2.87.87,0,0,0,.32.06,2,2,0,0,0,.47-.08h0a1.88,1.88,0,0,1,.53-.07h0a2.06,2.06,0,0,1,.65.11c.11,0,.21.08.32.12a3,3,0,0,0,.36.14,1.24,1.24,0,0,0,.31,0h.09s.3,0,.33-.15a.08.08,0,0,0,0-.07s-.08,0-.14-.06h-.06l-.1,0h-.07l-.21,0a1.58,1.58,0,0,1-.52-.33h0a1.18,1.18,0,0,0-.7-.28,4.49,4.49,0,0,1-1.41-.34.05.05,0,0,1,0,0s0,0,0,0a2.8,2.8,0,0,1,1-.16l.36,0c.22,0,.39,0,.56,0l.3,0h.29a2.55,2.55,0,0,1,.39,0l.22,0a3.64,3.64,0,0,0,.45.05l.2,0a.29.29,0,0,0,.23-.13.27.27,0,0,0,0-.24.47.47,0,0,0-.33-.34,1.55,1.55,0,0,0-.32,0l-.34,0-.26,0h-.08l.05.06,0,.07a.14.14,0,0,1-.05.15v0a.18.18,0,0,0,0-.16A.18.18,0,0,0,60,8.85h0l-.22,0-.09,0,0,.08c0,.06,0,.15,0,.2V9a.19.19,0,0,0,0-.08.21.21,0,0,0,0-.12v0h0a1,1,0,0,1-.2-.08l-.08,0,0,.09a.13.13,0,0,1,0,.06.25.25,0,0,1-.08.23l0-.06a.46.46,0,0,0,0-.14.47.47,0,0,0,0-.17v0h0l-.16-.08-.15-.07-.14-.06v0h0a3.87,3.87,0,0,0-1.54-.26H57a.71.71,0,0,0-.37.08c-.09.06-.11.19-.13.31a.8.8,0,0,1-.08.26.4.4,0,0,1-.12.1.63.63,0,0,0-.12.11.37.37,0,0,0,0,.35.64.64,0,0,1,0,.07.57.57,0,0,1,0,.25A1.08,1.08,0,0,0,56.07,9.89Zm5-.84h0L61,9l-.12,0A.28.28,0,0,1,61.05,9.05Zm-.19.14v0h0a.06.06,0,0,1,.06,0h0a.11.11,0,0,1,0,.07.05.05,0,0,1,0,0h0a.07.07,0,0,1-.06,0A.05.05,0,0,1,60.86,9.19ZM59,8.62s0,0,0-.06a.33.33,0,0,1,0,.29.31.31,0,0,1,0-.1S59,8.67,59,8.62Zm-1.52.45a.25.25,0,0,1,0-.19.28.28,0,0,0,.07.24l.08.07a.18.18,0,0,1,.07.05A.37.37,0,0,1,57.47,9.07Zm.64,0a.13.13,0,0,1-.06.07A.42.42,0,0,0,58.14,9,.11.11,0,0,1,58.11,9.09Zm-.89-.55a.41.41,0,0,1,.26-.13.52.52,0,0,0-.19.11c-.1.09-.13.19-.08.26a.12.12,0,0,0,.09,0h.06a.43.43,0,0,1,.38-.19h0a.54.54,0,0,1,.32.13.76.76,0,0,0,.3.14l-.09,0h-.06l-.06,0V9l-.07,0a.34.34,0,0,1-.26.1h0a.29.29,0,0,1-.24-.25h-.08v0l-.1.07h0l0,0h-.08a.14.14,0,0,1-.12-.13A.3.3,0,0,1,57.22,8.54Z" transform="translate(-12.5 -6)"/><path class="cls-2" d="M57.8,26.89a.6.6,0,0,0-.39-.32l-.14,0-.16,0h0a.94.94,0,0,1,.58.15l.07.05v-.11a.33.33,0,0,0-.19-.33l-.17,0h-.09A.72.72,0,0,1,57,26a1,1,0,0,1-.26-.81,5.38,5.38,0,0,1,.12-.7A4.1,4.1,0,0,0,57,24,3.56,3.56,0,0,0,57,23v-.07l-.12.09-.27.18a6.21,6.21,0,0,1-.61.34l-.1,0-.08,0v0a2.15,2.15,0,0,1,.12.5v.07a4.2,4.2,0,0,1,.06.69,7,7,0,0,1,0,.8.38.38,0,0,1,0,.1.86.86,0,0,1-.09.39l0,0,0,0,.07.13v0h0l.08,0a.67.67,0,0,1,.32.1.73.73,0,0,1,.36.49v0h.71a1.9,1.9,0,0,0,.35,0h0Z" transform="translate(-12.5 -6)"/><path class="cls-2" d="M53.63,15.84a3.13,3.13,0,0,1,1.29-.34,4,4,0,0,0,.85-.11,3.5,3.5,0,0,1,.68-.09h.22a1.91,1.91,0,0,0,.64-.07.3.3,0,0,0,.21-.16.3.3,0,0,0,0-.24.47.47,0,0,0-.39-.28H57a2.45,2.45,0,0,0-.53.09l-.25.06-.08,0,.06.06,0,.05a.14.14,0,0,1,0,.16v0a.22.22,0,0,0,0-.16.24.24,0,0,0-.09-.08h-.33l0,.07a.23.23,0,0,1,0,.21.22.22,0,0,1,0-.08s0-.05,0-.08a.3.3,0,0,0-.06-.11v0h0l-.22,0-.08,0,0,.08,0,.07a.25.25,0,0,1,0,.24s0,0,0-.06a.25.25,0,0,0,0-.15.34.34,0,0,0-.05-.17h0l-.17,0-.17-.05h0l-.13,0v0h0a3.71,3.71,0,0,0-.77-.08,5.13,5.13,0,0,0-.82.07l-.15,0a1,1,0,0,0-.53.15.42.42,0,0,0-.09.33.57.57,0,0,1,0,.27.48.48,0,0,1-.09.11,1.34,1.34,0,0,0-.11.14.34.34,0,0,0,0,.34.19.19,0,0,0,0,.07.43.43,0,0,1,0,.25.74.74,0,0,0,0,.21c0,.24.27.3.46.35l.15,0,.21.1a2.7,2.7,0,0,0,.4.14.58.58,0,0,0,.19,0,1.58,1.58,0,0,0,.59-.16h0a2.23,2.23,0,0,1,.56-.16l.32,0a2.07,2.07,0,0,1,.35,0l.33.07a2.33,2.33,0,0,0,.38.08l.17,0a.67.67,0,0,0,.24,0c.06,0,.28-.09.29-.2a.06.06,0,0,0,0-.06s-.08,0-.13,0h-.26a1.66,1.66,0,0,1-.22,0,1.47,1.47,0,0,1-.56-.24h0a1.15,1.15,0,0,0-.64-.18h-.48a4.49,4.49,0,0,1-1.07-.12.05.05,0,0,1,0,0S53.61,15.85,53.63,15.84ZM57.1,15h0a.07.07,0,0,1-.07-.06v0h0a.08.08,0,0,1,.07,0h0a.07.07,0,0,1,0,.06A.07.07,0,0,1,57.1,15ZM57,14.72a.19.19,0,0,1,.14,0,.13.13,0,0,0-.08,0H57Zm-2,.15a.33.33,0,0,1,0-.1.49.49,0,0,0,0-.12l0-.07A.31.31,0,0,1,55.06,14.87Zm-.81.37a.15.15,0,0,1,0,.08.34.34,0,0,0,.06-.15A.14.14,0,0,1,54.25,15.24Zm-.79-.13h0l0,0h0a.14.14,0,0,1-.12-.12.25.25,0,0,1,0-.2.57.57,0,0,1,.22-.16.57.57,0,0,0-.16.15c-.09.1-.1.2,0,.26a.07.07,0,0,0,.07,0h.07a.45.45,0,0,1,.35-.25h.06a.69.69,0,0,1,.28.08.81.81,0,0,0,.31.1.14.14,0,0,1-.1.05h-.11l0,.07v0l-.07,0a.38.38,0,0,1-.28.14h0a.28.28,0,0,1-.27-.21h-.08v0l-.09.08Zm.1,0a.31.31,0,0,0,.12.23l.08.05.08,0a.32.32,0,0,1-.22-.14A.26.26,0,0,1,53.56,15.14Z" transform="translate(-12.5 -6)"/><path class="cls-2" d="M55.53,12.78l-.08.05h0v0a2.79,2.79,0,0,0,.28,1.68h0v0h0l.28.05h0l.14,0h0v0a1,1,0,0,1,.25-.45h0a1.41,1.41,0,0,1,.35-.33l.08-.06-.09,0-.14,0a.05.05,0,0,1,0-.05,0,0,0,0,1,0,0l.43-.21.1-.06.1,0,.09-.05-.1,0a5.62,5.62,0,0,0-1-.19s0,0,0,0a.07.07,0,0,1,0-.06,5.24,5.24,0,0,1,.87-.28l.11,0-.1-.06h0l-.17,0h-.28a3,3,0,0,0-.5,0,1.69,1.69,0,0,0-.48.15Z" transform="translate(-12.5 -6)"/><path class="cls-2" d="M55,21.22l0,0a1.42,1.42,0,0,1,.25.23l0,0,0,.05,0,0A2,2,0,0,0,55.88,20a3.64,3.64,0,0,0-1-1.87L54.78,18c-.25-.27-.55-.6-.53-.93V17l-.06,0a1.2,1.2,0,0,1-.35.09h0a1.44,1.44,0,0,1-.54-.14l-.38-.13-.37-.13-.06,0,0,0,0,.05a1.54,1.54,0,0,1,0,.17,1.32,1.32,0,0,0-.08.72,1,1,0,0,0,.16.35h0a1.57,1.57,0,0,0,.41.4,5.6,5.6,0,0,0,.78.45,6.44,6.44,0,0,1,.8.47,1.79,1.79,0,0,1,.87,1.13,1.16,1.16,0,0,1-.26.78Z" transform="translate(-12.5 -6)"/><path class="cls-2" d="M44.93,28a17.73,17.73,0,0,0,4.38.76l1.11.11.08,0s0,.07,0,.11c-.06.23-.13.45-.21.67l0,.09.45-.17L52,29.08l.07,0-.17-.15-1-.82-.05,0-.18.54s0,.07,0,.08h0a.19.19,0,0,1-.08,0,9.56,9.56,0,0,0-3-.68,8.28,8.28,0,0,1-3.26-.84c-.26-.15-.51-.33-.75-.5a3.18,3.18,0,0,1-.59-.51,2,2,0,0,1-.32-1.42,3.62,3.62,0,0,1,2-2.91,5.21,5.21,0,0,1,3.76-.5l.05,0V21.2h0a.93.93,0,0,1,.16-.5.85.85,0,0,1,.3-.34,2,2,0,0,0-.27.37l.08,0a.93.93,0,0,1,.53-.36,1.45,1.45,0,0,0-.68.66,2.41,2.41,0,0,0-.14,1.22,2.65,2.65,0,0,1,0,1,2.12,2.12,0,0,1-.43.81l-.12.12a1.32,1.32,0,0,0-.24.29,1.24,1.24,0,0,0-.08.57v0c0,.44,0,.89.08,1.28,0,0,0,.08,0,.13v.12c0,.06,0,.12,0,.18s.14.22.23.22H48a4.08,4.08,0,0,0,.61,0h.34a.7.7,0,0,0,.28-.05.16.16,0,0,0,.13-.14c0-.09-.08-.18-.17-.24a.57.57,0,0,0-.31-.08h0s0,0,0,0,0,0,0,0h.05a.64.64,0,0,1,.52.25v0h0a.16.16,0,0,0,.13-.08.34.34,0,0,0-.07-.3h0a.48.48,0,0,0-.18-.07l-.17,0H49a.55.55,0,0,1-.28-.09.79.79,0,0,1-.21-.66,1.61,1.61,0,0,1,.7-1.33,3.17,3.17,0,0,1,.41-.21c.17-.09.35-.18.52-.29a3.22,3.22,0,0,0,.75-.77,3.51,3.51,0,0,0,.59-2c0,.11,0,.22,0,.33h.09c0-.09,0-.17,0-.25a1.64,1.64,0,0,1-.13.62l0,0,0,0a3.89,3.89,0,0,0,.85.26h0a4.68,4.68,0,0,0,.54.07h.48v0a1.85,1.85,0,0,1,.07-.41h0a.59.59,0,0,1,.06-.31v0l0,0,.06,0,.09-.13a2.36,2.36,0,0,0-.07,2,2.59,2.59,0,0,1,.15.93,1.84,1.84,0,0,1,0,.33,2.68,2.68,0,0,0,0,.8c0,.13.06.25.09.38a3.61,3.61,0,0,1,.12.57c0,.08,0,.19,0,.3,0,.27-.07.6.21.72a1.72,1.72,0,0,0,.52.08h.66c.14,0,.39,0,.41-.2s-.14-.25-.2-.29a1.09,1.09,0,0,0-.51-.16h0l.15,0a.75.75,0,0,1,.49.19l.05,0,0-.06c.09-.24-.06-.41-.21-.56l-.14-.15a1.68,1.68,0,0,1-.26-.61,3.22,3.22,0,0,1,.12-1.45c0-.06,0-.12,0-.18a3.55,3.55,0,0,0,.17-1.55,1.45,1.45,0,0,0-.38-.75L55,21.21c-.06-.06-.13-.11-.18-.17l.11.08.07,0,0-.06h0a1.4,1.4,0,0,0,.1-.16A.89.89,0,0,0,55,20a3.85,3.85,0,0,0-1.47-1.11l-.14-.07-.34-.19,0,0,0,.06a.68.68,0,0,1-.33.32.9.9,0,0,1-.39.1l-.14,0h-.07l0,.07a1.55,1.55,0,0,1,0,.31,0,0,0,0,1,0,0,0,0,0,0,1,0,0c0-.71-.66-1.11-1.19-1.43l-.21-.13a3.15,3.15,0,0,1-1.15-1.23,4.34,4.34,0,0,1-.19-3.25,8.62,8.62,0,0,1,.5-1.16c.07-.14.14-.29.2-.43.23-.49.16-.84-.2-1.07a4,4,0,0,0-.83-.37,21.51,21.51,0,0,0-5.37-1.1v.09c.7.12,1.4.27,2.09.44s1.46.38,2.17.61l.06,0a4.4,4.4,0,0,1,1.68.79,0,0,0,0,1,0,.06,6.64,6.64,0,0,0-1.46,3.44,4.08,4.08,0,0,0,.4,1.81,9.09,9.09,0,0,0,.49.86c.11.19.24.39.34.59h0a1.25,1.25,0,0,1,.34.7l0,.08c.07.38.19,1,.65,1l.17,0h0a0,0,0,0,1,0,0s0,0,0,.06a.57.57,0,0,1-.18,0,.66.66,0,0,1-.55-.33,1.2,1.2,0,0,1-.15-.34v0h0l-.73,0A6.84,6.84,0,0,0,44,21l-.22.23a6.2,6.2,0,0,0-1.61,2.73,3.19,3.19,0,0,0,.38,2.56A4.64,4.64,0,0,0,44.93,28Z" transform="translate(-12.5 -6)"/><path class="cls-2" d="M54.76,9.31a5.3,5.3,0,0,1,1-.3l.14,0-.13-.05h-.05a3.73,3.73,0,0,0-1.8.59,4,4,0,0,0-1.21,1.33,4,4,0,0,0-.59,1.87,3.37,3.37,0,0,0,.48,1.78l0,0,0,0a1.07,1.07,0,0,1,.37-.11h0a6,6,0,0,1,1.17-.14h.17l0-.06a2.6,2.6,0,0,1-.13-1.26,2.7,2.7,0,0,0,0-.28,7.93,7.93,0,0,1,.2-1.12,1.83,1.83,0,0,1,.65-.93,3.08,3.08,0,0,1,.53-.34v-.08a1.12,1.12,0,0,1-.42-.1.05.05,0,0,1,0-.05,0,0,0,0,1,0,0l.44-.2.09-.06.1-.06.09,0-.1,0a5.47,5.47,0,0,0-1-.19s0,0,0,0A.08.08,0,0,1,54.76,9.31Z" transform="translate(-12.5 -6)"/><path class="cls-2" d="M50,12.15l-.13.24a8,8,0,0,0-.38.94A4,4,0,0,0,49.9,17a3.7,3.7,0,0,0,1.07.9l.43.29a1.86,1.86,0,0,1,.65.78v0h.2v0a2.45,2.45,0,0,0-1.18-1.4,3.32,3.32,0,0,1-1.2-1.21,3.84,3.84,0,0,1,.09-3c.09-.24.18-.48.28-.71s.26-.68.37-1c0,0,0-.07,0-.11.1-.32.24-.71,0-1a2.46,2.46,0,0,0-.74-.47,18.81,18.81,0,0,0-3.63-1.19c-.47-.11-1-.21-1.49-.3l0,.08c.34.1.69.2,1.07.33s1,.34,1.39.52l.59.26.15.06.35.16h0a9,9,0,0,1,1.36.49,1.14,1.14,0,0,1,.61.51.84.84,0,0,1,0,.59A3.47,3.47,0,0,1,50,12.15Z" transform="translate(-12.5 -6)"/><path class="cls-2" d="M50.46,26.36a.72.72,0,0,1,.22.08.39.39,0,0,1,.14.17.07.07,0,0,0,.06,0c.06,0,.22-.07.24-.13s0,0,0-.06-.3-.29-.33-.31l-.14,0-.15-.05a.74.74,0,0,1-.4-.38,1.29,1.29,0,0,1,.14-1.26l0-.05-.06,0a2.05,2.05,0,0,1-.6-.17h0l-.1.05-.22.13,0,0,0,0a1.87,1.87,0,0,1,.1.75v.07a4,4,0,0,1-.11.95v.05h.05a.45.45,0,0,1,.4.22v0h0l.12,0a.57.57,0,0,1,.5.4v0h0l0,0,.15,0h0a.21.21,0,0,0,.2-.27.36.36,0,0,0-.25-.23l-.08,0c-.1,0-.24-.07-.28-.15a.08.08,0,0,1,0-.05A.48.48,0,0,0,50.46,26.36Z" transform="translate(-12.5 -6)"/><path class="cls-4" d="M58.74,18.17v0a1.92,1.92,0,0,1,.09-.32l0,0h0v0a1,1,0,0,1,.32-.4l.13-.09H59l-.21,0a1.41,1.41,0,0,1-.52-.29L58,16.76l-.09-.06-.07-.05v.08c0,.12,0,.24,0,.37h0l0,.15c0,.14.06.3.11.49h0l0,.15a2.17,2.17,0,0,0,.07.24l.09.33h0v.07c0,.15.07.28.09.4v0h0V19a3.22,3.22,0,0,1,0,.43v0h0v0a1.58,1.58,0,0,1-.12.54v.05h0V20a5,5,0,0,0,0-.55h0v-.05c0-.14,0-.27-.05-.42h0v0h0v0a4.47,4.47,0,0,0-.09-.45h0V18.4h0s0-.06,0-.1-.07-.24-.1-.35l0-.06h0c0-.13-.06-.25-.08-.35v0h0v0c0-.13,0-.25-.06-.35v-.06h0v0a2.64,2.64,0,0,1,0-.29v0h0v0c0-.07,0-.15,0-.23v0h0c0-.11,0-.22,0-.33v0h0v0a3.07,3.07,0,0,1,.11-.36V15.6a3.13,3.13,0,0,1,.22-.45l0,0h0a3.55,3.55,0,0,1,.23-.31l0,0h0a2.09,2.09,0,0,1,.31-.29l.07,0-.08,0a1.68,1.68,0,0,1-.38-.19L58,14c-.11-.06-.24-.12-.35-.19l0,0h-.27a1.94,1.94,0,0,1-.34,0h0l0,0,0,0h0l0,0-.06.05a1.25,1.25,0,0,0-.23.23h0v0h0a1.61,1.61,0,0,0-.19.31l0,0,0,.07.07,0,.29-.07a2.47,2.47,0,0,1,.29-.06h.1a.57.57,0,0,1,.27.06.68.68,0,0,1,.26.33h0l0,.07a.28.28,0,0,1-.16.34l-.1,0h-.09v0a1.68,1.68,0,0,1-.15.3h0l0,0a1,1,0,0,0-.08.11h0l-.1.12h0a1.55,1.55,0,0,1,0-.21.75.75,0,0,0,0-.2l0-.13,0,.13a2,2,0,0,1-.2.38,0,0,0,0,1,0,0h0a1,1,0,0,1-.07-.23.5.5,0,0,0,0-.13l0-.15,0,.14a1.14,1.14,0,0,1-.13.3l0,0h.06a2.8,2.8,0,0,1,.15.43l0,.07.05-.05a1,1,0,0,0,.2-.31l.05-.11h0a.74.74,0,0,0,0,.14c0,.07,0,.13,0,.2v.1l.06-.08a.24.24,0,0,0,.06-.08l0-.05.15-.25h0a.78.78,0,0,1,0,.34v.14a.17.17,0,0,1,0,.1l0,0,0,0v0a.17.17,0,0,1,0,.15h0l0,0a.48.48,0,0,1-.12.1.86.86,0,0,1-.46.12H56.4a3.4,3.4,0,0,1-.46-.09,2.57,2.57,0,0,0-.4-.08h0v0a.75.75,0,0,0,0,.16h0V17a.78.78,0,0,0,.25.7h0l.13.05,0,.05h0l.18.11a4.93,4.93,0,0,1,.54.34h0l0,0,.1.08a2.91,2.91,0,0,1,.3.31v0h0l0,0a2.71,2.71,0,0,1,.24.35v0a1.78,1.78,0,0,1,.14.36v.05a1.41,1.41,0,0,1,.05.35v.05a2.45,2.45,0,0,1,0,.27h0s0,0,0,0a2.46,2.46,0,0,0,0-.28v0h0v0a.8.8,0,0,0,0-.18h0l0-.08a2.06,2.06,0,0,0-.21-.48h0L57.12,19a2.53,2.53,0,0,0-.43-.51h0l-.1-.09a3.51,3.51,0,0,0-.53-.36h0L56,18a1.81,1.81,0,0,1-.37-.24l0,0h0l0,0a.71.71,0,0,1-.18-.28v-.1a.71.71,0,0,1,0-.29v0h0v0a.84.84,0,0,1,.07-.19l0-.06h-.18a2.25,2.25,0,0,0-.68.11l-.25.1-.09,0v0a.43.43,0,0,1,0,0h0v.05h0a2.07,2.07,0,0,0,.15.34h0l.06.09a2.57,2.57,0,0,0,.3.36h0l.06.07c.12.12.21.23.3.33l0,0c.09.12.18.22.25.32l0,.06,0,0h0a5.05,5.05,0,0,1,.25.45v0h0a2.3,2.3,0,0,1,.14.42h0v0a1.91,1.91,0,0,1,.06.33v.05a1.51,1.51,0,0,1,0,.3v.07h0l0,.17v0a2.47,2.47,0,0,1-.1.29l0,.05v0a1.51,1.51,0,0,1-.11.22h0v0l-.2.27,0,0,0,0,0,0,0,0a1.81,1.81,0,0,1,.13.35,2.24,2.24,0,0,1,0,.59h0l0,.07h0a3.93,3.93,0,0,1-.14.77l0,.09.09,0,.16-.07.09,0h0l.09,0h0l.25-.13h0l.06,0,.25-.15.18-.13h0l.08-.06.34-.28.33-.26h0l0,0h0l0,0c.13-.12.24-.23.35-.35h0l.06-.07a3.94,3.94,0,0,0,.61-.87h0v0h0a3,3,0,0,0,.19-.52h0l0-.08,0-.14a2.24,2.24,0,0,0,0-.53v0h0v0h0c0-.16,0-.31,0-.49v0h0v0c0-.15,0-.27,0-.4h0v-.07a2.74,2.74,0,0,1,0-.41Z" transform="translate(-12.5 -6)"/><path class="cls-5" d="M58.46,26.73l0,0,0,0a.48.48,0,0,0-.29-.3l-.09,0-.13,0h-.13v.05a.4.4,0,0,1,0,.19v.06l.06,0h.19a.53.53,0,0,1,.2.12l0,0,0,0Z" transform="translate(-12.5 -6)"/><path class="cls-5" d="M58.12,26.75a.26.26,0,0,0-.15,0h-.11l0,0,0,0,.06.11v0h.14l.18,0h.12l-.08-.08A.29.29,0,0,0,58.12,26.75Z" transform="translate(-12.5 -6)"/><path class="cls-5" d="M57.58,12.51l.13-.11A.43.43,0,0,0,57.9,12a.34.34,0,0,0,0-.1l0-.06h-.07l-.17,0H56.63l-.45,0,0,.08a1.86,1.86,0,0,0,.41.17l.06,0h0l.1,0,.21.09h0l.16.06.09,0h0l.31.13h0l.05,0Z" transform="translate(-12.5 -6)"/><path class="cls-5" d="M57.54,13.07a.31.31,0,0,0,0-.17.5.5,0,0,1,0-.13.22.22,0,0,1,0-.08l0-.07-.26.06h-.07l-.18,0H56.9l-.27.08v.08l.26.05H57l.18,0h.07l.27.07h0l.06,0Z" transform="translate(-12.5 -6)"/><path class="cls-5" d="M57.42,13.24a.64.64,0,0,1-.19.13h0l-.09.05-.22.12-.13.07h.47l.24,0,0-.06a.27.27,0,0,1,0-.12.49.49,0,0,1,0-.2Z" transform="translate(-12.5 -6)"/><path class="cls-4" d="M56.88,10.63l-.35-.19-.36-.19-.05,0h-.18a1.51,1.51,0,0,1-.18.09l-.19.08a3.09,3.09,0,0,0-.5.33,1.76,1.76,0,0,0-.61,1,7.08,7.08,0,0,0-.16.92,2.51,2.51,0,0,0,0,.27,2.53,2.53,0,0,0,.14,1.38v0h0l.24,0a4.5,4.5,0,0,1,.63.17l.19,0,.09,0,0-.08a3,3,0,0,1-.24-1.57h0v0h0a2.37,2.37,0,0,1,.21-.7,2.22,2.22,0,0,1,.78-.88A4,4,0,0,1,56.9,11L57,11l.22-.09.12,0-.11-.05A1.69,1.69,0,0,1,56.88,10.63Z" transform="translate(-12.5 -6)"/><path class="cls-5" d="M55.89,26.69H56a.49.49,0,0,1,.25.08.46.46,0,0,1,.15.2l0,0,.05,0a.23.23,0,0,1,.11,0h0v-.05a.67.67,0,0,0-.32-.38.47.47,0,0,0-.2-.06H56l-.06,0v.06a.44.44,0,0,1,0,.16Z" transform="translate(-12.5 -6)"/><path class="cls-5" d="M55.86,26.8a.36.36,0,0,1,0,.22v.05H56a.79.79,0,0,1,.3.07l.08,0,0-.08a.47.47,0,0,0-.12-.22.42.42,0,0,0-.32-.12h-.09Z" transform="translate(-12.5 -6)"/><path class="cls-5" d="M54.59,16h.25v0l0-.05,0,0,0,0a.25.25,0,0,1,0-.09h0s.09.14.11.18v.06h.12a.92.92,0,0,1,.43.08l.11,0h0l0,0a1.05,1.05,0,0,0,.12-.21h0v0l0-.1,0,.09a.15.15,0,0,1-.07.07h0c-.05,0-.09-.09-.13-.17l-.06-.12-.06-.08,0,.1c0,.2-.1.23-.13.23s-.14-.17-.16-.23v0h-.46v0h0l-.08.15a.83.83,0,0,1-.07.13h0l-.07-.11v0c0-.05-.05-.09-.08-.1h0a2.72,2.72,0,0,0-.47.19l-.12.06.13,0a3.52,3.52,0,0,0,.63.06h.05Z" transform="translate(-12.5 -6)"/><path class="cls-5" d="M55.43,10l-.13.06.15,0h.31l.25,0L56,10a.25.25,0,0,1,0-.12.71.71,0,0,1,0-.2l-.08,0a.57.57,0,0,1-.15.12h0l-.05,0-.06,0-.1.05h0l0,0Z" transform="translate(-12.5 -6)"/><path class="cls-5" d="M55.42,9.2h0l-.24.07v.08l.23.05h.06l.21.05h.06l.28.07h0l.06,0V9.52a.48.48,0,0,0,0-.18.28.28,0,0,1,0-.13s0-.05,0-.08l0-.07-.07,0-.16,0h-.08l-.24,0h0Z" transform="translate(-12.5 -6)"/><path class="cls-5" d="M55.15,8.32l-.46,0,0,.09a3.56,3.56,0,0,0,.41.17l.1,0h0l.08,0,.11,0,.1.05.37.16h0L56,9V9L56.09,9l.14-.11a.44.44,0,0,0,.19-.39.38.38,0,0,1,0-.1V8.29h-.06l-.15,0H55.15Z" transform="translate(-12.5 -6)"/><path class="cls-5" d="M54.05,8.83h0a5.1,5.1,0,0,0-.87.07l-.12,0,.11.06a3.47,3.47,0,0,1,.64.44l0,0,0,0a2.84,2.84,0,0,1,1-.47V8.87h-.13A6.08,6.08,0,0,0,54.05,8.83Z" transform="translate(-12.5 -6)"/><path class="cls-4" d="M52.85,24.28l.37-.07h.08l.15,0,.27-.06h0v0a2.36,2.36,0,0,0,0-.25,2.87,2.87,0,0,0-.14-.72c0-.15-.08-.3-.11-.46a3.58,3.58,0,0,1,0-.45V22.1l-.06,0a.67.67,0,0,1-.26.05h0a2.05,2.05,0,0,1-.39,0h-.06l-.1,0-.12,0-.2,0h0a2,2,0,0,1-.58-.23l-.05,0,0-.13v.08h0v.08a3.31,3.31,0,0,1-.2.68v0h0l0,.06a2.42,2.42,0,0,1-.21.39,1.94,1.94,0,0,1-.21.29v0h0l-.24.26,0,0h0l0,0-.13.12-.18.13h0l0,0c-.16.1-.31.19-.45.26l-.11.06.13,0,.35.07h.11l.27,0h.06l.38,0h1l.29,0h.07l.52-.07h.08Z" transform="translate(-12.5 -6)"/><path class="cls-5" d="M52.23,9.71l.12,0a4.4,4.4,0,0,1,.69.34h0l0,0a3.78,3.78,0,0,1,.49-.49l.09-.08h-.12a5,5,0,0,0-1.2.16Z" transform="translate(-12.5 -6)"/><path class="cls-5" d="M52.51,10.94l0,0,.08-.15a4.87,4.87,0,0,1,.32-.47l.08-.1-.13,0a3.26,3.26,0,0,0-1.1.5l-.09.06h.11a4,4,0,0,1,.67.13Z" transform="translate(-12.5 -6)"/><path class="cls-5" d="M52.3,16.51a.34.34,0,0,1,0-.12.69.69,0,0,1,0-.2l-.08,0a1.14,1.14,0,0,1-.15.16h0l0,0-.05,0-.2.15-.12.09h.72Z" transform="translate(-12.5 -6)"/><path class="cls-5" d="M52.11,14.43h.13l.1,0,.09,0,0-.08a3.85,3.85,0,0,1-.22-.52l0-.07,0,.06L52,14a2.69,2.69,0,0,0-.27.32l0,0,0,0A3.63,3.63,0,0,0,52.11,14.43Z" transform="translate(-12.5 -6)"/><path class="cls-5" d="M52.15,15.54l-.06,0-.13,0h-.05l-.26.11h0l0,0-.25.12,0,.08h.33L52,16H52l.19,0h.06V16a.39.39,0,0,0-.07-.16.34.34,0,0,1-.06-.12.11.11,0,0,1,0-.08Z" transform="translate(-12.5 -6)"/><path class="cls-5" d="M52.18,17.34a1.25,1.25,0,0,1,.11-.5l-.06-.05L52,17l-.12.09v0c-.15.11-.17.12-.16.16s0,0,.14.06h0l.16,0,.16,0Z" transform="translate(-12.5 -6)"/><path class="cls-5" d="M52.11,18h.21l0-.05a1,1,0,0,1-.1-.33l0-.09-.06.06c-.11.13-.24.29-.16.39A.28.28,0,0,0,52.11,18Z" transform="translate(-12.5 -6)"/><path class="cls-5" d="M51.37,11.73h.1l.56.09h0l.05,0v0a4.69,4.69,0,0,1,.27-.67l.06-.12-.12.06a6.07,6.07,0,0,0-.9.59Z" transform="translate(-12.5 -6)"/><path class="cls-5" d="M52.12,13.75l0-.06A4.16,4.16,0,0,1,52,13v-.13L51.9,13a4.25,4.25,0,0,1-.42.53l-.09.11-.06.06h.09c.21,0,.43,0,.64.06Z" transform="translate(-12.5 -6)"/><path class="cls-5" d="M51.18,12.75h.09a3.32,3.32,0,0,1,.63.11H52v-.2a4.55,4.55,0,0,1,.1-.61l0-.13L52,12a8.16,8.16,0,0,0-.76.69Z" transform="translate(-12.5 -6)"/><path class="cls-5" d="M51.4,26.75a.38.38,0,0,1,.16-.05h0l0-.05a.42.42,0,0,0-.21-.3.2.2,0,0,0-.11,0h-.12v.05a.19.19,0,0,1,0,.08v0l0,.08,0,.05h.06l.06,0a.31.31,0,0,1,.11.09l0,0Z" transform="translate(-12.5 -6)"/><path class="cls-5" d="M51.13,26.69h0l-.12,0-.08,0h0v0a.53.53,0,0,1,0,.12l0,.06h.29l.22,0h.06V27C51.33,26.9,51.3,26.72,51.13,26.69Z" transform="translate(-12.5 -6)"/><path class="cls-5" d="M50.75,15v.08a1.7,1.7,0,0,0,.37.1h.07l.18,0h.09l.33.09h0l.35.08h0l0,0,.12-.13h0a.43.43,0,0,0,.13-.41s0-.07,0-.1v-.06l0,0-.21,0h-.05l-.27,0h0l-.12,0-.22,0h-.11l-.25,0h-.06Z" transform="translate(-12.5 -6)"/><path class="cls-5" d="M50.28,26.87l0-.05a.47.47,0,0,0-.47-.3H49.7v0a.29.29,0,0,1-.05.2l0,.05h.06a.41.41,0,0,1,.19.13l0,0h0a1.5,1.5,0,0,1,.32-.09Z" transform="translate(-12.5 -6)"/><path class="cls-5" d="M49.37,27.1h.22l.24.05.09,0,0-.09a.43.43,0,0,0-.12-.17.29.29,0,0,0-.2-.07h-.12v.06a.17.17,0,0,1,0,.1Z" transform="translate(-12.5 -6)"/><path class="cls-5" d="M49.2,11.15a8.2,8.2,0,0,0-1.73.25c-.57.13-1.14.29-1.76.49s-1.18.4-1.76.62l-.71.31c-.26.12-.53.24-.8.34l0,.08a1.51,1.51,0,0,1,1.21.81,1.44,1.44,0,0,1,.09,1l.07,0,.19-.19,0,0,.58-.56.11-.11a20,20,0,0,1,1.54-1.35,10,10,0,0,1,1.56-1,6.71,6.71,0,0,1,.83-.36l.07,0a2.91,2.91,0,0,1,.5-.16v-.09Z" transform="translate(-12.5 -6)"/><path class="cls-5" d="M49,11.65l-.24.24c-.24.24-.44.47-.64.69A13.67,13.67,0,0,0,47,14.15a13.17,13.17,0,0,0-1.48,3.29l0,.08.09,0a1.27,1.27,0,0,1,.47-.09,1.31,1.31,0,0,1,1,.5l.09.1v-.13a4.35,4.35,0,0,1,.07-.95c0-.05,0-.09,0-.14a9.61,9.61,0,0,1,.23-1.19,8.18,8.18,0,0,1,.79-2h0a8,8,0,0,1,1.12-2.15l-.07-.05Z" transform="translate(-12.5 -6)"/><path class="cls-5" d="M45.5,17.25A12.89,12.89,0,0,1,47,14.08a12.33,12.33,0,0,1,1.15-1.54l.06-.08a7.42,7.42,0,0,1,1-1l0-.08-.1,0-.31.1a7.41,7.41,0,0,0-.87.4,10.37,10.37,0,0,0-1.57,1c-.55.44-1,.9-1.47,1.3l-.07.07-.57.55c-.12.12-.22.25-.32.37a2.88,2.88,0,0,1-.22.27l-.06.08h.09a1.77,1.77,0,0,1,1.75,1.66Z" transform="translate(-12.5 -6)"/><path class="cls-5" d="M49.07,17.74l.13.05-.08-.12a8.25,8.25,0,0,1-.66-1.18,4,4,0,0,1-.38-1.76,3.23,3.23,0,0,1,.06-.61l-.08,0a10.08,10.08,0,0,0-.52,1.51,11.14,11.14,0,0,0-.22,1.24c0,.19,0,.38,0,.56a5.44,5.44,0,0,1,0,.57v.11l.08-.07a1.73,1.73,0,0,1,1.12-.39A1.8,1.8,0,0,1,49.07,17.74Z" transform="translate(-12.5 -6)"/><path class="cls-5" d="M42.81,10.74a2.73,2.73,0,0,1-.43,2.36l-.08.14.14-.08a11.32,11.32,0,0,1,1.37-.63l.14-.06c.58-.23,1.18-.45,1.79-.65s1.22-.36,1.87-.51a6.51,6.51,0,0,1,1.54-.23h.16L49.17,11a5.83,5.83,0,0,0-1.31-.51l-.19-.06c-.68-.21-1.37-.4-2.06-.57a35.82,35.82,0,0,0-3.71-.69h-.65l.13.08A3.17,3.17,0,0,1,42.81,10.74Z" transform="translate(-12.5 -6)"/><path class="cls-5" d="M47.06,18.69a.58.58,0,0,0-.18,0h0a.11.11,0,0,0-.08,0,.08.08,0,0,0,0,.08v0c0,.12,0,.24,0,.36v.09h0a7.32,7.32,0,0,1,.91-.18h.14L47.79,19a4.25,4.25,0,0,0-.68-.28Z" transform="translate(-12.5 -6)"/><path class="cls-5" d="M45.74,9c-.78-.27-1.57-.47-2.31-.66h0l-.5,0,0,.08a1.36,1.36,0,0,1,.64.7v0h0c.81.06,1.49.14,2.13.25s1.06.2,1.59.33l0-.08,0,0-.21-.09C46.62,9.33,46.18,9.16,45.74,9Z" transform="translate(-12.5 -6)"/><path class="cls-5" d="M45.8,19h-.22c-.08.05-.07.15-.06.22a.06.06,0,0,0,0,0v.44l.06,0,.28-.13c.21-.09.43-.17.65-.24l.1,0-.09,0a1.87,1.87,0,0,0-.71-.21Z" transform="translate(-12.5 -6)"/><path class="cls-5" d="M44.45,20.42l0,0a7.94,7.94,0,0,1,.78-.5l.1-.06-.11,0a3.21,3.21,0,0,0-.74-.1h-.11a.13.13,0,0,0-.13.07.19.19,0,0,0,0,.19s0,0,0,.05l.12.36Z" transform="translate(-12.5 -6)"/><path class="cls-5" d="M43.74,21.08l0,0a5.32,5.32,0,0,1,.48-.46l.05,0-.07,0a1.23,1.23,0,0,0-.39-.07,1.21,1.21,0,0,0-.37.07h0l0,0a2.55,2.55,0,0,1,.25.46Z" transform="translate(-12.5 -6)"/><path class="cls-5" d="M42.78,21.42l0,0,.23.35,0,.07,0-.05c.13-.16.25-.3.38-.44h0l0-.05.05-.07H43.5a1.7,1.7,0,0,0-.67.13Z" transform="translate(-12.5 -6)"/><path class="cls-4" d="M43.08,24.69l.06-.14,0,0h0a1.3,1.3,0,0,1,.11-.19v0h0v0a3.07,3.07,0,0,1,.29-.34l0,0h0l.22-.19,0,0h0a2.85,2.85,0,0,1,.41-.26h0l.27-.12h0l.28-.09H45l.08,0,.19,0h.07a2.34,2.34,0,0,1,.38,0h.07l.32,0h.07l.29,0h.06c.13,0,.25.05.37.09H47l.33.11h0l.06,0,.23.09,0,0h0l.42.21,0,0,0,0a2,2,0,0,0,.26-.84,5.61,5.61,0,0,0,0-.58c0-.1,0-.21,0-.31h0v-.06c0-.1,0-.2,0-.29s0-.14,0-.21v0h0a4.17,4.17,0,0,0-.51-.09h-.07a4.41,4.41,0,0,0-.52,0h-.59l-.54.08-.08,0h0l-.42.11h0l-.05,0h0c-.14,0-.29.1-.44.16l0,0h0a4.52,4.52,0,0,0-.49.25h-.05a4.37,4.37,0,0,0-.44.31h0v0h0l0,0c-.11.1-.23.2-.33.31l0,.05h0c-.1.1-.19.21-.28.32l0,0h0a3.31,3.31,0,0,0-.29.47v0h0v0a2,2,0,0,0-.13.34h0V24l0,.12a1.86,1.86,0,0,0-.06.34v.07h0a3,3,0,0,0,0,.42h0v0h0a1.66,1.66,0,0,0,0,.32v.05h0v0a1.6,1.6,0,0,0,.18.49l.08,0a1.39,1.39,0,0,1-.1-.53h0v0A2,2,0,0,1,43,25v0h0v0A1.43,1.43,0,0,1,43.08,24.69Z" transform="translate(-12.5 -6)"/><path class="cls-6" d="M53.39,15.18a.09.09,0,0,0,.07,0h0l0,0a.3.3,0,0,0,.06.24.36.36,0,0,0,.3.15s0,0,0,0-.13-.08-.19-.13a.28.28,0,0,1-.09-.3.33.33,0,0,0,.31.25.49.49,0,0,0,.32-.16.41.41,0,0,1-.15.26s0,.06,0,0a.26.26,0,0,0,.17-.17.26.26,0,0,0,0-.17A.18.18,0,0,0,54.5,15s0-.07,0-.07c-.24,0-.41-.21-.66-.17a.5.5,0,0,0-.39.27,0,0,0,0,1-.07,0c-.06-.06,0-.16,0-.2a.86.86,0,0,1,.26-.2s0,0,0,0c-.2,0-.48.21-.43.43A.18.18,0,0,0,53.39,15.18Zm.46-.24a.12.12,0,0,0,0,.13.06.06,0,0,0,.08,0l0,0a.06.06,0,0,0,0,0h0v0l.12,0h0s-.07.08-.09.1a.3.3,0,0,1-.16,0,.35.35,0,0,1-.2-.16A.53.53,0,0,1,53.85,14.94Z" transform="translate(-12.5 -6)"/><path class="cls-6" d="M53.82,14.63a.9.9,0,0,1,.43.09.65.65,0,0,0,.27.08,0,0,0,0,0,0,0,1.65,1.65,0,0,0-.36-.16,1,1,0,0,0-.35,0S53.81,14.63,53.82,14.63Z" transform="translate(-12.5 -6)"/><path class="cls-6" d="M57.11,14.82a.11.11,0,0,0-.16.06v0a.12.12,0,0,0,.18.09A.11.11,0,0,0,57.11,14.82Z" transform="translate(-12.5 -6)"/><path class="cls-6" d="M56.89,14.76a1.09,1.09,0,0,1,.18,0,.52.52,0,0,1,.13.06s0,0,0,0-.23-.16-.35-.12S56.85,14.76,56.89,14.76Z" transform="translate(-12.5 -6)"/><path class="cls-6" d="M57.27,8.9l.07,0h0l0,0a.36.36,0,0,0,0,.25.39.39,0,0,0,.27.2s0,0,0,0-.11-.1-.17-.16a.31.31,0,0,1,0-.31.33.33,0,0,0,.27.29A.41.41,0,0,0,58.12,9a.38.38,0,0,1-.19.24s0,.06,0,.05a.27.27,0,0,0,.2-.14.25.25,0,0,0,0-.17.18.18,0,0,0,.2,0s0-.07,0-.07c-.25,0-.38-.27-.64-.28a.5.5,0,0,0-.42.21.05.05,0,0,1-.07,0c0-.07,0-.15.07-.2a.94.94,0,0,1,.28-.15s0,0,0,0c-.2,0-.51.13-.49.36A.18.18,0,0,0,57.27,8.9Zm.49-.18a.16.16,0,0,0,0,.15.11.11,0,0,0,.08,0l0,0a.06.06,0,0,0,0,0h0v0l.11.07h0s-.08.07-.11.08a.22.22,0,0,1-.16,0,.32.32,0,0,1-.17-.19Z" transform="translate(-12.5 -6)"/><path class="cls-6" d="M57.78,8.41a1,1,0,0,1,.41.16.68.68,0,0,0,.26.12,0,0,0,0,0,0,0,2.3,2.3,0,0,0-.33-.21.81.81,0,0,0-.35-.06S57.77,8.41,57.78,8.41Z" transform="translate(-12.5 -6)"/><path class="cls-6" d="M61,9.11a.1.1,0,0,0-.16,0l0,0A.12.12,0,0,0,61,9.3.11.11,0,0,0,61,9.11Z" transform="translate(-12.5 -6)"/><path class="cls-6" d="M60.8,9a1,1,0,0,1,.17,0l.12.09s0,0,0,0-.2-.19-.32-.17A0,0,0,0,0,60.8,9Z" transform="translate(-12.5 -6)"/><path class="cls-6" d="M58.76,12.45a.08.08,0,0,0,.07,0h0l0,0a.32.32,0,0,0,0,.25c0,.08.16.2.27.19s0,0,0,0-.12-.1-.17-.15a.27.27,0,0,1,0-.31.31.31,0,0,0,.27.28.41.41,0,0,0,.33-.1.36.36,0,0,1-.18.24s0,.05,0,.05a.29.29,0,0,0,.2-.14.35.35,0,0,0,0-.17.19.19,0,0,0,.2,0,0,0,0,0,0,0-.07c-.24,0-.37-.27-.63-.27a.49.49,0,0,0-.42.21s-.05,0-.07,0,0-.15.07-.19a.76.76,0,0,1,.28-.15,0,0,0,0,0,0-.05c-.2,0-.51.13-.5.36A.19.19,0,0,0,58.76,12.45Zm.49-.17a.12.12,0,0,0,0,.14,0,0,0,0,0,.07,0l0,0s0,0,0,0h0v0l.11.07h0s-.08.07-.1.08a.22.22,0,0,1-.16,0,.3.3,0,0,1-.17-.18A.33.33,0,0,1,59.25,12.28Z" transform="translate(-12.5 -6)"/><path class="cls-6" d="M59.27,12a.86.86,0,0,1,.41.16.56.56,0,0,0,.26.11s0,0,0,0a3.78,3.78,0,0,0-.33-.22.83.83,0,0,0-.35-.05A0,0,0,0,0,59.27,12Z" transform="translate(-12.5 -6)"/><path class="cls-6" d="M62.49,12.66a.12.12,0,0,0-.17,0s0,0,0,0a.12.12,0,0,0,.16.11A.11.11,0,0,0,62.49,12.66Z" transform="translate(-12.5 -6)"/><path class="cls-6" d="M62.28,12.58a.57.57,0,0,1,.18,0l.12.08a0,0,0,0,0,0,0c0-.16-.21-.2-.33-.18A0,0,0,0,0,62.28,12.58Z" transform="translate(-12.5 -6)"/><path class="cls-6" d="M62.88,15.66a.92.92,0,0,0-.66-.19,3.39,3.39,0,0,1-.64,0c-.43-.17-.79-.48-1.21-.68a4.23,4.23,0,0,0-1.21-.31l.55-.12a2.05,2.05,0,0,1,.89,0c.3.08.56.24.85.31a1,1,0,0,0,.59,0c.11-.05.28-.17.24-.31v0a.5.5,0,0,0,.09-.24.73.73,0,0,0,0-.36,0,0,0,0,0-.08,0c-.08.08-.15.18-.23.27L62,14a2.06,2.06,0,0,0,0-.35,0,0,0,0,0-.09,0,1.48,1.48,0,0,1-.3.36,2.36,2.36,0,0,0-.08-.45l0,0a1.34,1.34,0,0,0,.18-.28,1.58,1.58,0,0,0,0,.38s.07,0,.1,0a2.36,2.36,0,0,0,.26-.36c0,.14,0,.28,0,.41s.06.07.09,0a2.08,2.08,0,0,0,.45-.53l.18,0c.39-.1.24-.66,0-.84a1,1,0,0,0-.68-.11,3.47,3.47,0,0,1-.64,0c-.44-.12-.83-.39-1.28-.54a4.77,4.77,0,0,0-1.68-.17.86.86,0,0,0-.52.13l-.06.08a7.54,7.54,0,0,0-1,0l-.92,0a2.12,2.12,0,0,1,.44-.35,5.44,5.44,0,0,1,.65-.3,2.72,2.72,0,0,0,.35-.16,3.8,3.8,0,0,0,.74-.12,2.06,2.06,0,0,1,.89,0c.29.07.55.23.84.3a1,1,0,0,0,.6,0c.11-.05.28-.16.23-.3v0a.45.45,0,0,0,.09-.25.73.73,0,0,0,0-.36.06.06,0,0,0-.09,0l-.23.27s0,0-.06.07,0-.25,0-.35-.07-.06-.09,0a2.2,2.2,0,0,1-.3.37A3.26,3.26,0,0,0,60,10a0,0,0,0,0,0,0,1,1,0,0,0,.18-.28c0,.12,0,.25,0,.38a.06.06,0,0,0,.1,0,2.11,2.11,0,0,0,.26-.35c0,.13,0,.27,0,.41a.05.05,0,0,0,.09,0,2,2,0,0,0,.45-.52,1.25,1.25,0,0,0,.19,0c.39-.1.23-.65,0-.83a.9.9,0,0,0-.68-.11,4.57,4.57,0,0,1-.64,0c-.44-.13-.83-.4-1.28-.55A5,5,0,0,0,57,8a.71.71,0,0,0-.51.13.27.27,0,0,0-.07.08,7.54,7.54,0,0,0-1,0l-1-.06a.1.1,0,0,0-.08.18,2.67,2.67,0,0,0,.73.38l.35.15h-.35a4.55,4.55,0,0,0-2.23,0c-.06,0-.09.13,0,.16a3.29,3.29,0,0,1,.68.4A4.57,4.57,0,0,0,52,9.62a.1.1,0,0,0,0,.18,3.19,3.19,0,0,1,.74.3,3,3,0,0,0-1.27.66c-.07.06,0,.15.06.16a4.48,4.48,0,0,1,.64.08,5.79,5.79,0,0,0-1,.7.09.09,0,0,0,.06.15c.2,0,.39,0,.59.08a10.85,10.85,0,0,0-.86.8.09.09,0,0,0,.07.15,2.71,2.71,0,0,1,.69.08c-.21.21-.39.48-.58.7a.09.09,0,0,0,.06.15c.23,0,.45,0,.68,0a2.32,2.32,0,0,0-.38.46.08.08,0,0,0,0,.09c.15.25.63.05.84.21a.11.11,0,0,0,.08,0h0a7.71,7.71,0,0,0-1,.12l-1,.11a.1.1,0,0,0-.05.18,2.74,2.74,0,0,0,.79.27l.67.18a5.18,5.18,0,0,0-.92.44c-.07.05-.05.19,0,.18a6,6,0,0,1,1,0l-.17.14a3.51,3.51,0,0,1-.4.27.1.1,0,0,0,0,.17,1.58,1.58,0,0,0,.65,0l-.25.19c-.1.08-.28.17-.32.29s.2.23.39.28a.7.7,0,0,0-.19.37,18.26,18.26,0,0,1-1.51-1.22c-.82-1-.5-2.36-.1-3.42.23-.6.5-1.18.68-1.8a1.25,1.25,0,0,0,.07-.76,1.12,1.12,0,0,0-.51-.5,8.87,8.87,0,0,0-1.73-.75c-.62-.22-1.26-.42-1.9-.59a22.26,22.26,0,0,0-4.37-.71c-.09,0-.14.15,0,.19a1.82,1.82,0,0,1,1,.76C42.74,9,42.12,9,41.49,9c-.06,0-.77.07-.49.23a3.43,3.43,0,0,1,1.66,1.57,2.93,2.93,0,0,1-.57,2.49.1.1,0,0,0,.09.15,1.33,1.33,0,0,1,1.33.67,1.31,1.31,0,0,1-.21,1.49.1.1,0,0,0,.1.17,1.59,1.59,0,0,1,1.82,1.93c0,.08.07.17.15.12a1.17,1.17,0,0,1,1.77.47.11.11,0,0,0,.16,0c.5-.58,1.87-.78,2.23.07a4,4,0,0,1,.16.7A6.83,6.83,0,0,0,48,19a2.32,2.32,0,0,0-1.14-.51.19.19,0,0,0-.23.12.82.82,0,0,0,0,.27l0,.26a1.84,1.84,0,0,0-1-.27c-.12,0-.21.05-.24.17a.92.92,0,0,0,0,.33c0,.1,0,.19,0,.29a4.35,4.35,0,0,0-.52-.1,1.3,1.3,0,0,0-.62,0,.2.2,0,0,0-.15.24,2.25,2.25,0,0,0,.15.55,1.31,1.31,0,0,0-1,.06.09.09,0,0,0,0,.13,2.3,2.3,0,0,1,.32.57,2,2,0,0,0-.93.2.1.1,0,0,0,0,.13c.11.18.23.35.34.52a4.17,4.17,0,0,0-.8,4.13,3.76,3.76,0,0,0,2,1.81,10.8,10.8,0,0,0,2.89.8c1.07.16,2.16.23,3.24.34a4.46,4.46,0,0,1-.28.8c0,.07,0,.19.12.15l2.1-.82a.1.1,0,0,0,0-.17l-1.36-1.11a.1.1,0,0,0-.16,0l-.18.57c-1.73-.79-3.7-.52-5.47-1.14A4.27,4.27,0,0,1,44,26.75a2,2,0,0,1-.88-1.26,2.25,2.25,0,0,1,1.66-2.06,4.42,4.42,0,0,1,3.28.4l-.12.15c-.22.25-.45.41-.48.77A8.86,8.86,0,0,0,47.5,26c0,.21,0,.43,0,.64s0,.34.08.44.27.08.38.09a5.49,5.49,0,0,0,.7,0,2,2,0,0,0,.53,0h0a.63.63,0,0,0,.31.05,2.7,2.7,0,0,1,.39.08.08.08,0,0,0,.1-.1.33.33,0,0,0,0-.15l.27-.08a.71.71,0,0,0,.43,0s0,0,0,0a.76.76,0,0,0,.3.05l.37,0s.09,0,.09-.08a1.06,1.06,0,0,0,0-.19.75.75,0,0,0,.24-.08s.08-.06.06-.1a.73.73,0,0,0-.25-.41.36.36,0,0,0-.33,0,.52.52,0,0,0-.25-.21c-.12-.06-.27-.08-.4-.14a.72.72,0,0,1-.34-.44,2.17,2.17,0,0,1,.1-1.07l.27,0a8.32,8.32,0,0,0,1.12.08,6.53,6.53,0,0,0,1.08-.07l.56-.11a2.48,2.48,0,0,0,.39-.1,2.9,2.9,0,0,0,0,.72c0,.36.18.7.23,1.05s-.1.67,0,1,.4.31.66.34a3.7,3.7,0,0,0,1.15,0l.14-.07a1.47,1.47,0,0,1,.21,0,3.37,3.37,0,0,1,.34.1c.07,0,.13,0,.12-.11l0-.1a4,4,0,0,0,1.42-.06H58l.39,0c.06,0,.1-.08.07-.13l0-.09.16-.08a.09.09,0,0,0,0-.12.8.8,0,0,0-.38-.41.64.64,0,0,0-.43,0,.49.49,0,0,0-.28-.19c-.21-.06-.39-.08-.53-.28a1,1,0,0,1-.13-.64c.07-.72.45-1.58.12-2.28a4.69,4.69,0,0,0,1.74-2.13,3.45,3.45,0,0,0,.15-1.8c-.09-.63-.12-1.36.52-1.68l.18,0a2.25,2.25,0,0,1,.89.14c.28.11.52.3.8.4a1,1,0,0,0,.6,0c.11,0,.29-.13.26-.28a0,0,0,0,0,0,0,.53.53,0,0,0,.13-.23,1.09,1.09,0,0,0,.06-.36s-.06,0-.09,0l-.25.24a.24.24,0,0,1-.08.06c0-.11,0-.24,0-.35s-.06-.06-.08,0a1.77,1.77,0,0,1-.34.33,3.42,3.42,0,0,0,0-.46s0,0,0,0a1.71,1.71,0,0,0,.21-.26,1.61,1.61,0,0,0,0,.38s.06.05.09,0a2.35,2.35,0,0,0,.3-.33,2.85,2.85,0,0,0,0,.41.05.05,0,0,0,.08,0,2.52,2.52,0,0,0,.51-.47h.18C63.19,16.43,63.09,15.86,62.88,15.66ZM52,16.56l-.22,0,.2-.16.06,0a.49.49,0,0,0,0,.17Zm6.19,9.85a.45.45,0,0,1,.26.28.41.41,0,0,0-.11.07.45.45,0,0,0-.22-.13.7.7,0,0,0-.21,0,.67.67,0,0,0,0-.2A.66.66,0,0,1,58.18,26.41Zm-.3.36a.28.28,0,0,1,.22,0,.36.36,0,0,1,.14.1h-.3l-.06-.11Zm4.23-12.69a2.11,2.11,0,0,0,.19-.23,1.2,1.2,0,0,1-.06.24l-.06.13a.59.59,0,0,0-.16-.07A.31.31,0,0,0,62.11,14.08Zm-.22-.24a1.32,1.32,0,0,1,0,.28l-.15,0h0A1.16,1.16,0,0,0,61.89,13.84Zm-.4.16-.19-.12a1.33,1.33,0,0,0,.14-.19A1.67,1.67,0,0,1,61.49,14Zm-.34-.54a1.46,1.46,0,0,1-.16.19l-.09-.07a1.21,1.21,0,0,0-.52-.16c0-.08,0-.31-.16-.26s-.08.09-.11.13l-.06.09a5.34,5.34,0,0,1-.88-.2,3,3,0,0,1,.5-.11h0s0,.09,0,.12a.37.37,0,0,1,.05.11s.06,0,.08,0,.12-.18.2-.25l0,0,.38,0c0,.11.06.28.16.29s.17-.13.21-.24c.06.12.07.33.19.34s.2-.19.25-.32c0,.12,0,.28.06.4s0,0,0,0l-.11.16c0-.1,0-.2,0-.3S61.17,13.42,61.15,13.46Zm.05.34-.12-.09.08-.09C61.17,13.68,61.19,13.74,61.2,13.8Zm-.92-.39h-.11l.06-.1v0h0v0Zm-.52-.35h.18s-.06.1-.1.14l-.05-.1Zm.77.07.21,0-.06.08q0,.11-.06,0S60.56,13.19,60.53,13.13Zm.41,0h.22l0,.11c-.11.2-.09.11-.14,0Zm.46.29a1.53,1.53,0,0,0,0-.3h.22A1.17,1.17,0,0,1,61.4,13.45Zm.38,0c0-.11,0-.22,0-.33h.11l.13,0A2.11,2.11,0,0,1,61.78,13.49Zm.38.08a1.53,1.53,0,0,0,0-.37l.31,0A1.68,1.68,0,0,1,62.16,13.57Zm-4.23-1.19c.11-.15.06-.47.2-.56a1.42,1.42,0,0,1,.68-.06,3.86,3.86,0,0,1,1.55.26.24.24,0,0,1,.07.16c0,.09,0,.17,0,.26s0,0,0,0a.37.37,0,0,0,0-.38h0l.32.16a.26.26,0,0,1,0,.15c0,.09-.06.15-.07.23s0,0,0,0,.15-.17.15-.28,0-.06,0-.08l.21.08,0,.11c0,.06,0,.13,0,.19s0,0,0,0,.07-.17,0-.28l.23,0a.21.21,0,0,1,.06.08c0,.06,0,.12,0,.18s0,0,0,0a.19.19,0,0,0,.1-.22.3.3,0,0,0,0-.08,3,3,0,0,1,.9,0,.42.42,0,0,1,.31.31c.05.19,0,.28-.21.31a3.12,3.12,0,0,1-.86-.06,4,4,0,0,0-.69,0,4,4,0,0,1-.85,0,3,3,0,0,0-1.34.14.1.1,0,0,0,0,.17,4.67,4.67,0,0,0,1.43.34,1.13,1.13,0,0,1,.67.27,1.7,1.7,0,0,0,.54.34l.24.07.15,0c.07,0,.2,0,.18.08s-.23.12-.29.12a.86.86,0,0,1-.39,0c-.23-.06-.45-.19-.68-.26a2.54,2.54,0,0,0-.67-.11,2.3,2.3,0,0,0-.58.07,1.19,1.19,0,0,1-.79,0,4,4,0,0,1-.57-.33c-.18-.1-.53-.17-.52-.44s.12-.3.09-.47-.09-.26,0-.37S57.86,12.46,57.93,12.38ZM58.44,19a.67.67,0,0,1-.14-.09c0-.14-.06-.28-.1-.42l.17.1a2.81,2.81,0,0,0,.31.08c0,.13,0,.27,0,.4A.57.57,0,0,1,58.44,19Zm.28.14c0,.16,0,.32,0,.48a.91.91,0,0,1-.42-.2,3.25,3.25,0,0,0,0-.44A.64.64,0,0,0,58.72,19.15Zm0-.54-.23,0a1.59,1.59,0,0,1-.26-.14c0-.2-.11-.38-.16-.57a1,1,0,0,0,.67.34A2.88,2.88,0,0,0,58.67,18.61ZM55.82,23a1.57,1.57,0,0,0-.14-.38,2.07,2.07,0,0,0,0-.61,1.4,1.4,0,0,0-.13-.36,2.26,2.26,0,0,1,.23.29,1.94,1.94,0,0,1,.22.4,2,2,0,0,1,.15.47,1.57,1.57,0,0,1,0,.23.41.41,0,0,0,0,.11v.05l-.24.13,0,0A1,1,0,0,0,55.82,23Zm0,.38-.26.11a5.29,5.29,0,0,0,.13-.78,2,2,0,0,1,.08.22A1.16,1.16,0,0,1,55.8,23.41Zm.23-1a2,2,0,0,0-.51-.78,1.73,1.73,0,0,0,.19-.28c.14,0,.26.2.35.29a4.12,4.12,0,0,1,.33.4,1.88,1.88,0,0,1,.22.45,1.33,1.33,0,0,1,0,.44l-.19.13-.24.15v0l0-.26A2.38,2.38,0,0,0,56,22.4Zm-.66-.92,0,0a1.37,1.37,0,0,0-.25-.23,1.19,1.19,0,0,0,.26-.82,1.86,1.86,0,0,0-.88-1.16c-.5-.35-1.08-.56-1.58-.91a1.9,1.9,0,0,1-.41-.39v0a1.17,1.17,0,0,1-.16-.34,1.72,1.72,0,0,1,.13-.87l.06,0c.24.1.51.16.75.26a1.39,1.39,0,0,0,.6.14,1.45,1.45,0,0,0,.36-.08c0,.42.45.84.68,1.13a3.58,3.58,0,0,1,1,1.85A2,2,0,0,1,55.37,21.48Zm-3-3.42a2.09,2.09,0,0,0,.54.49.61.61,0,0,1-.52.36,1.64,1.64,0,0,0-.38-.82A1.94,1.94,0,0,0,52.35,18.06ZM52,17.88c-.07-.07.07-.24.15-.33a1.42,1.42,0,0,0,.11.35C52.14,17.9,52,17.91,52,17.88Zm4.68-2a1.3,1.3,0,0,1-.24.41,2.19,2.19,0,0,0-.15-.43s0,0,0,0a1.14,1.14,0,0,0,.13-.3,2.54,2.54,0,0,0,.1.37.06.06,0,0,0,.1,0,2.4,2.4,0,0,0,.2-.39c0,.13,0,.27.07.4a0,0,0,0,0,.09,0,2,2,0,0,0,.17-.23,4.13,4.13,0,0,0,.38.25.65.65,0,0,0,.23.13,1.75,1.75,0,0,0,0,.33l-.27,0-.21-.07a.25.25,0,0,0,0-.08.85.85,0,0,0,0-.36.05.05,0,0,0-.09,0l-.18.3-.06.08c0-.12-.06-.24-.07-.35A.06.06,0,0,0,56.67,15.88Zm.06.47h-.2a1,1,0,0,0,.17-.27A2.66,2.66,0,0,1,56.73,16.35Zm-.5-.35a1,1,0,0,1,.1.29,1.33,1.33,0,0,1-.21-.09A2,2,0,0,0,56.23,16Zm-.15-.53.21,0a1.51,1.51,0,0,1-.13.33A2.63,2.63,0,0,0,56.08,15.47Zm.38-.05h.24a2.68,2.68,0,0,1-.16.34C56.51,15.64,56.5,15.52,56.46,15.42Zm.4,0c.1,0,.21,0,.31,0a3.26,3.26,0,0,1-.24.4A2.2,2.2,0,0,0,56.86,15.4Zm.3,1.1s0,0,0,0a.22.22,0,0,0,0-.12.88.88,0,0,0,.47.11,1.93,1.93,0,0,0,0,.24,1.3,1.3,0,0,1-.52,0A.19.19,0,0,0,57.16,16.5ZM57,16.28a2.26,2.26,0,0,0,.16-.26.88.88,0,0,1,0,.24.58.58,0,0,1,0,.14l-.17,0A.27.27,0,0,0,57,16.28Zm.15.45a1.46,1.46,0,0,0,.55,0,2.71,2.71,0,0,0,0,.29,1,1,0,0,1-.47.15,2.73,2.73,0,0,1-.64.06,2.24,2.24,0,0,1-.57-.08,2.16,2.16,0,0,1-.49-.22.55.55,0,0,1,0-.17c.29,0,.56.15.85.17a1,1,0,0,0,.59-.13A.53.53,0,0,0,57.1,16.73Zm-.48.59a3.37,3.37,0,0,0,.71-.09.83.83,0,0,0,.34-.1l.06.36a3.78,3.78,0,0,1-1,.26,2,2,0,0,1-1-.09.75.75,0,0,1-.24-.66A1.92,1.92,0,0,0,56.62,17.32Zm-1,.87a2,2,0,0,1,.37-.1h0a3.34,3.34,0,0,1,.53.37,1.54,1.54,0,0,0-.53.06,1.91,1.91,0,0,0-.52.19l0-.06a4.08,4.08,0,0,0-.25-.33Zm-.45.11-.3-.34.3-.05.37-.1a3.37,3.37,0,0,0,.37.24l-.21.06A3.35,3.35,0,0,0,55.21,18.3Zm.84.28.34,0h.24a2.87,2.87,0,0,1,.46.53,2.28,2.28,0,0,0-.69,0,2.1,2.1,0,0,0-.6.14,4.17,4.17,0,0,0-.26-.46A3,3,0,0,1,56.05,18.58Zm.54-.35a6.81,6.81,0,0,0-.73-.45l0,0a.57.57,0,0,0,.18,0,2.66,2.66,0,0,0,.63,0,3,3,0,0,0,1.09-.26c0,.12,0,.23.08.35l-.28.14-.35.11A3.09,3.09,0,0,1,56.59,18.23Zm-1.07-.48a2.67,2.67,0,0,1-.26.09,1.76,1.76,0,0,1-.4.07l0,0a2.38,2.38,0,0,1-.3-.36,1,1,0,0,0,.42,0,1.08,1.08,0,0,0,.37-.1v0A.89.89,0,0,0,55.52,17.75Zm-.21-.4-.09,0a2.1,2.1,0,0,1-.24.06,2.37,2.37,0,0,1-.46,0,1.14,1.14,0,0,1-.17-.37,2,2,0,0,0,1-.07A.81.81,0,0,0,55.31,17.35Zm0-.37a1.5,1.5,0,0,1-.55.11l-.43,0s0-.05,0-.07l.3-.12a2,2,0,0,1,.78-.1A.5.5,0,0,0,55.32,17Zm.5,2.26a4.26,4.26,0,0,1,.62-.13,5.14,5.14,0,0,1,.68,0,1.86,1.86,0,0,1,.22.5,1.68,1.68,0,0,0-.67,0,3.28,3.28,0,0,0-.7.1A3.66,3.66,0,0,0,55.82,19.24Zm1.54.44c0,.06,0,.13,0,.19a4,4,0,0,0-1.37.18c0-.11,0-.22-.05-.33A3.22,3.22,0,0,1,57.36,19.68Zm0-.57.33-.08.26,0h.14c0,.14,0,.28,0,.42a1.63,1.63,0,0,0-.62.08A2.39,2.39,0,0,0,57.35,19.11Zm.48.35a1.4,1.4,0,0,1,.29,0,3.15,3.15,0,0,1,0,.53,3.29,3.29,0,0,0-.43-.09l-.11,0a2.14,2.14,0,0,0-.06-.35Zm.24-.54a1.36,1.36,0,0,0-.36,0,2.36,2.36,0,0,0-.38.1,2.9,2.9,0,0,0-.25-.36,1.59,1.59,0,0,0,.38-.06l.28-.1.23-.08C58,18.62,58,18.77,58.07,18.92Zm-.58-.34a1.7,1.7,0,0,1-.45.08,2.91,2.91,0,0,0-.3-.31l-.1-.08a2.6,2.6,0,0,0,.56-.07,2,2,0,0,0,.39-.13,1.36,1.36,0,0,0,.25-.11l.09.35,0,.1C57.8,18.45,57.64,18.53,57.49,18.58ZM57.73,16a1.28,1.28,0,0,1-.34-.19,2.13,2.13,0,0,0-.25-.16,1.91,1.91,0,0,0,.16-.32h0a1.1,1.1,0,0,0,.25.17.75.75,0,0,0,.27.13C57.8,15.76,57.76,15.88,57.73,16Zm-.14-.55-.22-.13.11,0a.33.33,0,0,0,.18-.39l.15.1a1.2,1.2,0,0,0,.28.13,3.17,3.17,0,0,0-.23.45Zm.25-.51-.21-.14a.7.7,0,0,0-.28-.35.72.72,0,0,0-.28-.07.76.76,0,0,0-.16-.06.85.85,0,0,1-.3-.19,1.67,1.67,0,0,1,.23-.23l.09-.07a2.23,2.23,0,0,0,.63.55,4.63,4.63,0,0,0,.43.24.9.9,0,0,0,.36.14,3.4,3.4,0,0,0-.23.3C58,15,57.93,15,57.84,15Zm-2.6-3.39a2.17,2.17,0,0,0,.35.15.29.29,0,0,0,.16,0l-.1.14a1.89,1.89,0,0,1-.62-.08,1.16,1.16,0,0,1-.5-.21,1.69,1.69,0,0,1,.26-.52A1,1,0,0,0,55.24,11.56ZM54.81,11a1.9,1.9,0,0,1,.28-.29.94.94,0,0,0,.32.49,1.32,1.32,0,0,0,.33.18.85.85,0,0,0,.24.08,1.8,1.8,0,0,0-.19.2h0a1.11,1.11,0,0,1-.55-.2A1.37,1.37,0,0,1,54.81,11Zm.17.81a3,3,0,0,0,.41.09h.22l-.12.21c0,.06-.05.12-.08.19H55.3a2.33,2.33,0,0,1-.37,0,1.4,1.4,0,0,1-.28-.06,1.12,1.12,0,0,1-.24-.13c0-.14.05-.28.09-.41a.43.43,0,0,1,0,0A1.1,1.1,0,0,0,55,11.84Zm-.35.43a2.33,2.33,0,0,0,.38.08c.11,0,.23,0,.35,0h0a1.92,1.92,0,0,0-.09.32,1.4,1.4,0,0,1-.5,0,.92.92,0,0,1-.45-.17c0-.13,0-.26.06-.39A1,1,0,0,0,54.63,12.27Zm.13.48.33,0h.2s0,.05,0,.08h0v0a1.7,1.7,0,0,0,0,.39,2.28,2.28,0,0,1-1-.16l0-.25a2.54,2.54,0,0,0,0-.29A1.16,1.16,0,0,0,54.76,12.75Zm.07.58a2.43,2.43,0,0,0,.42,0,2.45,2.45,0,0,0,0,.38,1.24,1.24,0,0,1-.47,0,2,2,0,0,1-.54-.14,3.05,3.05,0,0,1,0-.43A1.39,1.39,0,0,0,54.83,13.33Zm0,.48h.33a.25.25,0,0,0,.12,0,2,2,0,0,0,.09.35l-.16,0-.31,0a4.21,4.21,0,0,1-.5,0,2.56,2.56,0,0,1-.13-.53A2.23,2.23,0,0,0,54.85,13.81Zm.09.46.26,0a.73.73,0,0,0,.21-.06,2.31,2.31,0,0,0,.1.28c-.24-.07-.49-.16-.75-.21Zm.53-1.4.21-.13a2,2,0,0,1,.47-.15,2.27,2.27,0,0,1,.52,0,2.06,2.06,0,0,0,.43,0h0a5.3,5.3,0,0,0-.88.28.09.09,0,0,0,0,.18,6,6,0,0,1,1,.19l-.2.11a3.42,3.42,0,0,1-.43.21.09.09,0,0,0,0,.16.35.35,0,0,0,.14.06,1.62,1.62,0,0,0-.35.34,1.16,1.16,0,0,0-.26.49l-.15,0-.27-.05v0A2.78,2.78,0,0,1,55.47,12.87Zm1.68.07a.06.06,0,0,0,0,0l-.2,0v0a.2.2,0,0,1,0-.11l.19,0A.45.45,0,0,0,57.15,12.94Zm-.24,0-.27,0,.28-.08A.28.28,0,0,0,56.91,12.93Zm.59.14h0L57.22,13a.36.36,0,0,1,0-.27l.21-.05a.28.28,0,0,0,0,.09C57.42,12.89,57.5,13,57.5,13.07Zm-.06.54h-.15a.41.41,0,0,1,0-.19.59.59,0,0,0,.2-.15.78.78,0,0,0,0,.22A.28.28,0,0,0,57.44,13.61Zm-.21,0h-.29l.22-.12h0A.42.42,0,0,0,57.23,13.6Zm-.84.88a1.66,1.66,0,0,1,.19-.3.87.87,0,0,0,.37.22c-.1,0-.19,0-.29.06l-.29.07A.08.08,0,0,0,56.39,14.48Zm1.52,0a3.47,3.47,0,0,1-.37-.21,2.79,2.79,0,0,1-.58-.5l0,0c.2,0,.4,0,.58,0h0l.06,0c.22.14.47.24.7.38a3.49,3.49,0,0,0,.39.19l-.32.29h0C58.24,14.74,58.06,14.6,57.91,14.52Zm0-2.62s0,.07,0,.11a.4.4,0,0,1-.17.35l-.14.12,0,0a.94.94,0,0,1,.18-.54Zm-.26,0a.79.79,0,0,0-.15.51l-.26-.11a1.46,1.46,0,0,1,.07-.19l.11-.21Zm-.29,0a1.09,1.09,0,0,0-.15.39l-.2-.08a.49.49,0,0,1,.07-.31Zm-.64.05a.14.14,0,0,1,0-.06H57a.55.55,0,0,0-.07.28l-.15-.07-.09,0A.3.3,0,0,1,56.68,12Zm0-.06a.32.32,0,0,0,0,.17,2.44,2.44,0,0,1-.44-.19Zm-.06.33.3.13a2.7,2.7,0,0,0-.81,0,1.75,1.75,0,0,0-.53.18,1.85,1.85,0,0,1,.18-.44,2.33,2.33,0,0,1,.17-.26A3.22,3.22,0,0,0,56.57,12.25ZM56,11.44l-.11,0a.94.94,0,0,1-.15-.06,1.23,1.23,0,0,1-.32-.17.88.88,0,0,1-.23-.24,2.34,2.34,0,0,1-.09-.24,2.27,2.27,0,0,1,.32-.22,1.13,1.13,0,0,0,.77.8A1.25,1.25,0,0,0,56,11.44Zm.26-.2h0a1.33,1.33,0,0,1-.28-.1,1.18,1.18,0,0,1-.28-.22,1.76,1.76,0,0,1-.24-.45l.1-.06.21-.09a.86.86,0,0,0,.11.24,1,1,0,0,0,.26.23,1.78,1.78,0,0,0,.58.22A2.82,2.82,0,0,0,56.29,11.24Zm-.54-1.19h-.17V10l.1-.05.06,0A1.09,1.09,0,0,0,55.75,10.05ZM56,9.52h0l-.28-.07a.51.51,0,0,1,0-.18.36.36,0,0,1,0-.1l.18,0a.28.28,0,0,0,0,.09C55.93,9.33,56,9.4,56,9.52Zm-.21.31A.66.66,0,0,0,56,9.71a.54.54,0,0,0,0,.21.32.32,0,0,0,0,.14H55.8A.54.54,0,0,1,55.8,9.83ZM56.89,11h0a2.74,2.74,0,0,1-.28-.05,1.63,1.63,0,0,1-.38-.17,1.12,1.12,0,0,1-.28-.25,1.51,1.51,0,0,1-.09-.18l.13-.07h.14l0,0c.23.14.48.24.71.38a1.29,1.29,0,0,0,.33.17Zm3.73-.42a2.11,2.11,0,0,0,.19-.23.56.56,0,0,1-.06.23.52.52,0,0,1-.06.13l-.15-.06Zm-.22-.25a2.53,2.53,0,0,1,0,.28l-.16,0h0A1,1,0,0,0,60.4,10.28Zm-.4.16a1.22,1.22,0,0,1-.19-.12l.14-.18A1,1,0,0,1,60,10.44Zm-.34-.54a1.39,1.39,0,0,1-.15.19l-.1-.06a1.23,1.23,0,0,0-.52-.17c0-.08,0-.31-.16-.26s-.08.1-.1.14l-.07.09a5,5,0,0,1-.87-.2,2,2,0,0,1,.49-.11h0a.43.43,0,0,1,.05.12l.06.12a.05.05,0,0,0,.08,0c.08-.07.11-.17.19-.25l0,0,.39.06c0,.11.05.27.15.29s.17-.14.22-.24c0,.11.06.33.19.33s.19-.18.24-.32c0,.13,0,.28.06.4a.08.08,0,0,0,0,0l-.11.16c0-.1,0-.2,0-.3A.05.05,0,0,0,59.66,9.9Zm.05.35-.11-.09.08-.1Zm-.92-.4h-.11l.06-.1h0v0Zm-.51-.34h.17a1.19,1.19,0,0,0-.09.15l-.06-.1S58.29,9.52,58.28,9.51Zm.77.07.2,0,0,.08c0,.07-.05.08-.07,0A.32.32,0,0,1,59.05,9.58Zm.4,0h.22a.47.47,0,0,1-.05.1c-.11.21-.09.12-.13,0A.69.69,0,0,1,59.45,9.6Zm.46.3a1.63,1.63,0,0,0,0-.31h.22A1.23,1.23,0,0,1,59.91,9.9Zm.38,0a1.87,1.87,0,0,0,0-.34h.24A2.2,2.2,0,0,1,60.29,9.94Zm.39.08a2.42,2.42,0,0,0,0-.38l.31,0A2,2,0,0,1,60.68,10ZM56.44,8.83c.12-.15.06-.47.2-.56a1.42,1.42,0,0,1,.68-.06,4.09,4.09,0,0,1,1.56.25.25.25,0,0,1,.06.17c0,.08,0,.17,0,.25s0,0,0,0a.35.35,0,0,0,0-.38h0l.31.15a.29.29,0,0,1,0,.16c0,.08-.06.15-.07.23s0,0,0,0,.15-.18.15-.29a.24.24,0,0,0,0-.08l.21.08a.45.45,0,0,1,0,.11,1.23,1.23,0,0,0,0,.2s0,0,0,0a.24.24,0,0,0,0-.28.85.85,0,0,0,.23,0,.22.22,0,0,1,.05.08c0,.06,0,.12,0,.18s0,0,0,0a.17.17,0,0,0,.1-.22.25.25,0,0,0,0-.07,3,3,0,0,1,.9,0,.44.44,0,0,1,.31.31c0,.2,0,.28-.21.32a3.44,3.44,0,0,1-.85-.06,3.19,3.19,0,0,0-.69,0,4,4,0,0,1-.85,0,3.09,3.09,0,0,0-1.35.14.09.09,0,0,0,0,.16,4.67,4.67,0,0,0,1.43.34,1.21,1.21,0,0,1,.67.28,1.9,1.9,0,0,0,.54.34l.25.06.14,0c.07,0,.2,0,.18.09s-.23.11-.29.12a1,1,0,0,1-.39,0c-.23-.07-.45-.19-.68-.26a2.12,2.12,0,0,0-.66-.11,1.94,1.94,0,0,0-.59.06,1.19,1.19,0,0,1-.79,0,6.38,6.38,0,0,1-.57-.32c-.18-.11-.52-.18-.51-.44s.11-.3.08-.47-.09-.27,0-.38S56.37,8.91,56.44,8.83Zm-.21-.46.15,0a.38.38,0,0,1,0,.1.42.42,0,0,1-.17.36l-.14.11a.74.74,0,0,1,0-.39A.4.4,0,0,1,56.23,8.37Zm-.34,0h.24l-.06.1A.7.7,0,0,0,56,8.9l-.18-.07a.5.5,0,0,1,0-.27A.75.75,0,0,1,55.89,8.38Zm-.4.1.06-.11h.26a.56.56,0,0,0-.05.42l-.27-.12A.67.67,0,0,1,55.49,8.48Zm-.37,0a3.25,3.25,0,0,1-.43-.18l.46,0A.3.3,0,0,0,55.12,8.53Zm.15.06-.1,0a.18.18,0,0,1,0-.1.2.2,0,0,1,0-.08h.24a.49.49,0,0,0,0,.29Zm-2.12.35A6.23,6.23,0,0,1,54,8.87c.26,0,.52,0,.78,0a3,3,0,0,0-1,.47A4.12,4.12,0,0,0,53.15,8.94Zm-.78.78a4.73,4.73,0,0,1,1.19-.15,3.86,3.86,0,0,0-.5.49A4.42,4.42,0,0,0,52.37,9.72Zm-.56,1a3.3,3.3,0,0,1,1.08-.49c-.11.15-.22.31-.32.47a1.09,1.09,0,0,1-.08.15h0C52.26,10.83,52,10.79,51.81,10.76Zm-.33.94a5.66,5.66,0,0,1,.89-.58,4.37,4.37,0,0,0-.27.68h0Zm-.2,1A10,10,0,0,1,52,12a3.21,3.21,0,0,0-.1.62s0,.11,0,.17h0A3.44,3.44,0,0,0,51.28,12.71Zm.14.94a7.67,7.67,0,0,0,.52-.64,3.22,3.22,0,0,0,.12.69Zm.79.75a3.18,3.18,0,0,1-.47-.06,5.2,5.2,0,0,1,.38-.44c.07.17.14.35.23.52Zm-.08-1.68a4,4,0,0,1,.59-1.86,3.83,3.83,0,0,1,1.19-1.31A3.55,3.55,0,0,1,55.69,9h0a5.82,5.82,0,0,0-1,.3c-.07,0-.07.18,0,.18a5.21,5.21,0,0,1,1,.2c-.07,0-.13.08-.19.11l-.44.2a.09.09,0,0,0,0,.17,1.18,1.18,0,0,0,.43.1,3.12,3.12,0,0,0-.54.34,2,2,0,0,0-.66.95,9.66,9.66,0,0,0-.24,1.41,2.63,2.63,0,0,0,.13,1.28,6.11,6.11,0,0,0-1.28.13,1.17,1.17,0,0,0-.4.13A3.38,3.38,0,0,1,52.13,12.72Zm3.53-3.3-.21,0v0a.21.21,0,0,1,0-.11l.24-.06A1,1,0,0,0,55.66,9.42Zm-.27-.05-.23,0,.23-.07Zm.14.66h-.08l.08,0Zm-3,5.21c.09-.16,0-.47.12-.58s.47-.14.66-.17a4,4,0,0,1,1.57,0,.21.21,0,0,1,.09.15,2.13,2.13,0,0,0,0,.25s0,0,0,0a.35.35,0,0,0,0-.38h0l.33.1a.3.3,0,0,1,.05.15.93.93,0,0,1,0,.24s0,0,0,0a.28.28,0,0,0,.1-.31l0-.07.22,0a.37.37,0,0,1,0,.11c0,.06,0,.13.05.18s0,0,0,0a.23.23,0,0,0,0-.28.89.89,0,0,0,.23,0,.23.23,0,0,1,.07.07c0,.06,0,.12,0,.19s0,0,0,0a.19.19,0,0,0,.07-.23l-.05-.07a3.06,3.06,0,0,1,.89-.14.43.43,0,0,1,.35.26c.08.18,0,.28-.16.34a3.1,3.1,0,0,1-.86.07,3.19,3.19,0,0,0-.68.1,4,4,0,0,1-.84.11,3.14,3.14,0,0,0-1.31.34.1.1,0,0,0,0,.17,4.55,4.55,0,0,0,1.47.11,1.25,1.25,0,0,1,.71.17,1.69,1.69,0,0,0,.58.26l.25,0h.15c.07,0,.2,0,.19.06s-.21.14-.27.16a.85.85,0,0,1-.39,0c-.24,0-.47-.12-.71-.15a2.15,2.15,0,0,0-.67,0,2.19,2.19,0,0,0-.57.16,1.25,1.25,0,0,1-.78.15,4.54,4.54,0,0,1-.61-.24c-.2-.07-.55-.09-.58-.35s.07-.32,0-.48-.12-.24,0-.37S52.51,15.33,52.56,15.24Zm2.38.42s-.06.1-.08.14l0,.1a4.54,4.54,0,0,1-.9-.06,2.82,2.82,0,0,1,.48-.19h0s.05.08.07.11l.07.11a.06.06,0,0,0,.08,0c.07-.08.09-.19.16-.28v0h.39c0,.11.1.26.2.26s.15-.16.17-.26c.07.1.12.31.24.3a.16.16,0,0,0,.11-.09v0l-.12.21-.11,0a1.13,1.13,0,0,0-.54-.08C55.11,15.81,55.05,15.59,54.94,15.66Zm.1.23h-.11s0-.07,0-.11v0h0v0Zm-.56-.26.14,0h0c0,.05,0,.11-.07.16l-.07-.09Zm.77-.05h.2a.36.36,0,0,1,0,.09c0,.07,0,.09-.06,0S55.28,15.63,55.25,15.58Zm.4,0,.22,0,0,.11c-.08.22-.07.13-.14,0A.56.56,0,0,0,55.65,15.55ZM56,16l.06.18-.13-.07A.41.41,0,0,0,56,16Zm-3.52-1.18a.38.38,0,0,0,0,.1.41.41,0,0,1-.12.38l-.12.14h0a.85.85,0,0,1,0-.23.57.57,0,0,1,0-.32ZM50.75,15l.37,0a.33.33,0,0,0,0,.14Zm.65.15h0l-.18,0a.43.43,0,0,1,0-.16l.26,0A.45.45,0,0,0,51.4,15.19Zm.06,0a.4.4,0,0,1,0-.26h0l.29,0a.48.48,0,0,0,0,.17.55.55,0,0,0,0,.22Zm.41.1a.45.45,0,0,1,0-.42l.27-.05a.66.66,0,0,0-.05.28.77.77,0,0,0,0,.26Zm-.5.62.24-.12s0,.06,0,.09,0,0,0,0Zm.33,0,0,0a.31.31,0,0,1,0-.1l.26-.11A.34.34,0,0,0,52,16Zm.28-.11a.25.25,0,0,1,0-.17l.12-.05a.28.28,0,0,0,0,.09c0,.12.11.17.13.29h0l-.18,0A.46.46,0,0,1,52,15.83Zm.1.72a.66.66,0,0,1,0-.2.81.81,0,0,0,.16-.16.74.74,0,0,0,0,.21.4.4,0,0,0,0,.13Zm-.22.72s-.11,0-.12,0,.15-.11.16-.12l.35-.29a1.58,1.58,0,0,0-.12.52ZM46.23,8.89a19.67,19.67,0,0,1,3.62,1.19,2.65,2.65,0,0,1,.73.46c.29.29.1.72,0,1.06-.18.58-.44,1.14-.65,1.72a3.9,3.9,0,0,0-.09,3,3.27,3.27,0,0,0,1.22,1.23,2.5,2.5,0,0,1,1.16,1.38h-.12a1.91,1.91,0,0,0-.67-.8,6.1,6.1,0,0,1-1.49-1.19,4,4,0,0,1-.39-3.59,6.26,6.26,0,0,1,.38-.93,5,5,0,0,0,.4-.84.88.88,0,0,0,0-.62,1.24,1.24,0,0,0-.64-.53,8.17,8.17,0,0,0-1.36-.49c-.16-.09-.34-.16-.5-.23l-.59-.26c-.46-.19-.93-.36-1.4-.52s-.71-.23-1.07-.33C45.24,8.68,45.74,8.78,46.23,8.89Zm-3.31-.53.5.05c.77.19,1.55.39,2.31.65.44.15.88.31,1.32.49l.26.11q-.8-.2-1.59-.33a19.31,19.31,0,0,0-2.13-.25A1.42,1.42,0,0,0,42.92,8.36Zm-.07,2.36A3.21,3.21,0,0,0,41.4,9.21h.49c1.25.17,2.49.4,3.71.69.69.17,1.37.36,2,.57a7.32,7.32,0,0,1,1.5.56,7.44,7.44,0,0,0-1.55.23c-.63.16-1.25.33-1.87.52s-1.21.41-1.8.65a13.72,13.72,0,0,0-1.51.69A2.87,2.87,0,0,0,42.85,10.72Zm-.39,2.48c.51-.2,1-.44,1.51-.64s1.16-.44,1.75-.63,1.17-.35,1.76-.49a7.46,7.46,0,0,1,1.76-.24,4.91,4.91,0,0,0-.58.18c-.28.11-.56.24-.83.37a10.36,10.36,0,0,0-1.57,1,19.71,19.71,0,0,0-1.54,1.36c-.23.22-.47.44-.69.67L43.8,15a1.47,1.47,0,0,0-.09-1A1.54,1.54,0,0,0,42.46,13.2Zm1.21,2.32c.19-.2.34-.44.54-.64l.64-.62c.48-.45,1-.89,1.47-1.3a10.85,10.85,0,0,1,1.56-1c.28-.14.57-.28.86-.39l.41-.13a8.6,8.6,0,0,0-1.07,1.11,14.45,14.45,0,0,0-1.15,1.55,13.42,13.42,0,0,0-1.47,3.17A1.82,1.82,0,0,0,43.67,15.52Zm3.55,1.26a6.51,6.51,0,0,0-.08,1.09,1.38,1.38,0,0,0-1.57-.42,13.1,13.1,0,0,1,1.48-3.28,12.46,12.46,0,0,1,1.14-1.56q.3-.36.63-.69c.18-.18.37-.35.54-.53a8.07,8.07,0,0,0-1.12,2.16,8.38,8.38,0,0,0-.79,2A9.42,9.42,0,0,0,47.22,16.78ZM47.31,18c0-.38,0-.76.06-1.13a8.7,8.7,0,0,1,.22-1.24,8.94,8.94,0,0,1,.51-1.51,4.36,4.36,0,0,0-.07.62,4.06,4.06,0,0,0,.4,1.78,8.64,8.64,0,0,0,.65,1.19A1.8,1.8,0,0,0,47.31,18Zm-.44.7a.65.65,0,0,1,.23.06,4,4,0,0,1,.67.28,7.12,7.12,0,0,0-.92.18c0-.14,0-.27,0-.4S46.78,18.7,46.87,18.69Zm-1.26.39s.18,0,.21,0a1.9,1.9,0,0,1,.7.21q-.33.11-.66.24l-.27.13c0-.13,0-.25,0-.37S45.53,19.12,45.61,19.08Zm-1.3.7c0-.07.13,0,.2,0a3.66,3.66,0,0,1,.74.1,6.52,6.52,0,0,0-.78.51L44.35,20C44.34,19.93,44.28,19.84,44.31,19.78Zm-.82.76a1.17,1.17,0,0,1,.74,0c-.17.15-.33.3-.48.46A2.59,2.59,0,0,0,43.49,20.54Zm-.64.9a1.65,1.65,0,0,1,.66-.13l0,.05c-.13.14-.26.29-.38.44ZM43,24.67A1.31,1.31,0,0,0,43,25a.24.24,0,0,0-.17,0c0-.14,0-.28,0-.41l.11,0a1.38,1.38,0,0,1,.2,0A.91.91,0,0,0,43,24.67Zm-.21.67h.07a1.65,1.65,0,0,0,.09.54,2.08,2.08,0,0,1-.17-.48v-.05Zm0-.05a3.16,3.16,0,0,1,0-.32.23.23,0,0,1,.16,0,2.51,2.51,0,0,0,0,.27h-.09Zm.32-.8a.5.5,0,0,0-.32,0,1.86,1.86,0,0,1,.06-.34l0-.11.16.11a.41.41,0,0,1,.1.09l.08.1Zm.14-.23a.55.55,0,0,0-.16-.18,1.74,1.74,0,0,0-.2-.13,2,2,0,0,1,.14-.34l.11,0,.18.08a1.42,1.42,0,0,1,.22.2A1.93,1.93,0,0,0,43.27,24.26Zm.33-.39a.8.8,0,0,0-.21-.2.69.69,0,0,0-.32-.12,3.31,3.31,0,0,1,.29-.47.82.82,0,0,1,.27.22.57.57,0,0,1,.12.18,1.54,1.54,0,0,1,.08.19Zm.27-.23a.67.67,0,0,0-.2-.38.85.85,0,0,0-.28-.22,2.69,2.69,0,0,1,.27-.32.55.55,0,0,1,.17.05A.86.86,0,0,1,44,23a1.7,1.7,0,0,1,.26.43A3,3,0,0,0,43.87,23.64Zm.74-.4-.28.12a.94.94,0,0,0-.06-.15,2,2,0,0,0-.2-.3.75.75,0,0,0-.35-.25,2.35,2.35,0,0,1,.33-.3.1.1,0,0,1,.05,0,2.44,2.44,0,0,1,.33.39,1,1,0,0,1,.13.27c0,.08,0,.18,0,.26Zm.32-.1-.29.09a.72.72,0,0,0-.14-.51,2.16,2.16,0,0,0-.37-.43,5.09,5.09,0,0,1,.45-.31,1.43,1.43,0,0,1,.31.55,1.86,1.86,0,0,1,.06.34C45,23,44.93,23.05,44.93,23.14Zm.16,0H45a1.22,1.22,0,0,0,0-.27,1.36,1.36,0,0,0-.07-.35,1.41,1.41,0,0,0-.32-.54c.16-.09.32-.18.48-.25a.83.83,0,0,1,.14.22,1.45,1.45,0,0,1,.12.42,1.89,1.89,0,0,1,0,.41c0,.1-.05.21-.07.31Zm.64-.07-.39,0a1,1,0,0,0,.07-.3,1.62,1.62,0,0,0,0-.44,1.31,1.31,0,0,0-.25-.64l.45-.17A1.58,1.58,0,0,1,45.73,23Zm.4,0H45.8a1.57,1.57,0,0,0-.15-1.54l.45-.12a1.08,1.08,0,0,1,.29.75,1.61,1.61,0,0,1-.1.53c0,.1-.07.19-.11.29A.47.47,0,0,0,46.13,23.05Zm.07,0,.06-.15a1.48,1.48,0,0,0,.1-.27,1.69,1.69,0,0,0,.09-.59,1.06,1.06,0,0,0-.3-.68l.54-.08a1.17,1.17,0,0,1,.22,1,1.25,1.25,0,0,1-.43.82Zm.34.05a1.26,1.26,0,0,0,.43-.86,1.67,1.67,0,0,0,0-.63.65.65,0,0,0-.17-.33,3.24,3.24,0,0,1,.44,0,1.47,1.47,0,0,1,.12.95,2,2,0,0,1-.17.53L47,23a1.43,1.43,0,0,1-.11.21A2.74,2.74,0,0,0,46.54,23.11Zm.44.1a1.69,1.69,0,0,0,.17-.29,2.8,2.8,0,0,0,.23-.63,1.45,1.45,0,0,0-.11-1,4.53,4.53,0,0,1,.52,0,1.34,1.34,0,0,1,.08.56,3.19,3.19,0,0,1-.08.62,2,2,0,0,1-.46.84Zm.63.22-.24-.09a2,2,0,0,0,.48-.88,3.5,3.5,0,0,0,.08-.64,1.26,1.26,0,0,0-.07-.51l.5.09c0,.17,0,.34,0,.5a3.88,3.88,0,0,1-.14.66,2.63,2.63,0,0,1-.24.51A1.83,1.83,0,0,1,47.61,23.43Zm.07,0a2,2,0,0,0,.52-.83,3.61,3.61,0,0,0,.15-.65v0a8.81,8.81,0,0,1,0,.89,2,2,0,0,1-.25.81Zm1.92,3.6h-.15a.28.28,0,0,0,0-.13v0a.28.28,0,0,1,.25.05.64.64,0,0,1,.11.16Zm.3-.14a.44.44,0,0,0-.22-.14.34.34,0,0,0,.07-.22.42.42,0,0,1,.47.26A1.19,1.19,0,0,0,49.9,26.93Zm1.3-.56a.22.22,0,0,1,.16,0,.38.38,0,0,1,.19.27.44.44,0,0,0-.17.07.33.33,0,0,0-.13-.11l-.07,0,0-.09A.28.28,0,0,0,51.2,26.37Zm-.08.37c.12,0,.16.12.18.22l-.23,0-.22,0a.33.33,0,0,0,0-.14A.61.61,0,0,1,51.12,26.74Zm-1-1a.82.82,0,0,0,.42.4l.29.1c.1,0,.35.16.3.3s-.2.14-.22.1a.4.4,0,0,0-.16-.18c-.18-.12-.42-.06-.54-.27,0,0,0,0,0,0-.07.23.26.27.4.32a.34.34,0,0,1,.22.2.17.17,0,0,1-.16.22,1.06,1.06,0,0,1-.19,0,.57.57,0,0,0-.68-.4c-.08-.19-.25-.23-.43-.26a4,4,0,0,0,.12-1,2,2,0,0,0-.11-.84,1.05,1.05,0,0,1,.21-.12l.1-.06a2.52,2.52,0,0,0,.61.18A1.32,1.32,0,0,0,50.07,25.69Zm.15-1.62,0,.13-.41-.07a4.83,4.83,0,0,0,.45-.26A.67.67,0,0,1,50.22,24.07Zm.31.2-.29-.05a.8.8,0,0,0,0-.15.6.6,0,0,0,0-.23l.18-.13.13-.11v0a.75.75,0,0,1,0,.26A1.29,1.29,0,0,1,50.53,24.27Zm.41.05-.37,0h0a.82.82,0,0,0,.1-.4,1,1,0,0,0,0-.33,2,2,0,0,0,.24-.27,1.46,1.46,0,0,1,.12.5A2,2,0,0,1,50.94,24.32Zm.07,0a1.73,1.73,0,0,0,0-.6,1.34,1.34,0,0,0-.14-.47L51.1,23a3,3,0,0,0,.21-.4,2.15,2.15,0,0,1,.2.9,2.59,2.59,0,0,1,0,.48c0,.13-.07.26-.11.39Zm.65,0H51.4a2.11,2.11,0,0,0,.17-.89,2.45,2.45,0,0,0-.22-1,3.22,3.22,0,0,0,.2-.69A6.38,6.38,0,0,1,51.88,23a3.89,3.89,0,0,1,0,.68,2.22,2.22,0,0,1,0,.37,2.29,2.29,0,0,1-.08.28Zm.23,0a1.9,1.9,0,0,0,.1-.57,4,4,0,0,0,0-.69,5.3,5.3,0,0,0-.34-1.24,1.71,1.71,0,0,0,.59.24,3.06,3.06,0,0,1,.21,1.16,3.62,3.62,0,0,1-.2,1.08Zm.36,0a3,3,0,0,0,0-2.22l.15,0,.23.05a3.19,3.19,0,0,1,.26,1,2.72,2.72,0,0,1-.14,1.06A4.6,4.6,0,0,1,52.25,24.31Zm.59-.07A2.68,2.68,0,0,0,53,23.15a2.51,2.51,0,0,0-.27-1,2.85,2.85,0,0,0,.41,0c0,.14.09.27.12.41a3.5,3.5,0,0,1,.09.55,3.67,3.67,0,0,1-.11,1Zm.87-.19a3.2,3.2,0,0,0-.42.1h0a3.08,3.08,0,0,0,0-1.5,1.8,1.8,0,0,0-.14-.43.82.82,0,0,0,.28,0,3.57,3.57,0,0,0,0,.46,9.37,9.37,0,0,1,.25,1.17A2.09,2.09,0,0,1,53.71,24.05Zm1.37,2.51a1.12,1.12,0,0,1,.51.15c.07.05.2.16.19.26s-.3.16-.42.16h-.51a2.09,2.09,0,0,1-.61-.08c-.34-.15-.13-.69-.16-1s-.15-.64-.21-1a4.67,4.67,0,0,1,0-1.12,2.6,2.6,0,0,0-.16-.95A2.17,2.17,0,0,1,54,20.89s0-.05,0,0a1.19,1.19,0,0,0-.31.36,1.56,1.56,0,0,1,.17-.37s0,0,0,0a3,3,0,0,0-.21.4.8.8,0,0,0-.08.37,2.83,2.83,0,0,0-.06.42c-.14,0-.29,0-.43,0a4.93,4.93,0,0,1-.57-.07,3.29,3.29,0,0,1-.84-.26,1.76,1.76,0,0,0,.12-.9s-.06,0-.06,0a2.07,2.07,0,0,1-.06.5,3,3,0,0,0-.06-.51s-.05,0-.05,0a3.64,3.64,0,0,1-.59,2.13,2.93,2.93,0,0,1-.74.75c-.29.21-.62.32-.92.51a1.66,1.66,0,0,0-.73,1.36.86.86,0,0,0,.23.69.57.57,0,0,0,.3.1l.26,0a.49.49,0,0,1,.17.06c.12.19.11.3,0,.32a.68.68,0,0,0-.61-.26.07.07,0,0,0,0,.14.55.55,0,0,1,.31.08c.13.08.23.23,0,.3a1.79,1.79,0,0,1-.61,0A6,6,0,0,1,48,27a.18.18,0,0,1-.23-.18c0-.06,0-.11,0-.17s0-.17,0-.26c0-.42-.06-.85-.08-1.27a1.12,1.12,0,0,1,.07-.58,2.23,2.23,0,0,1,.35-.4,2.17,2.17,0,0,0,.45-.83,2.91,2.91,0,0,0,0-1,2.33,2.33,0,0,1,.14-1.2,1.47,1.47,0,0,1,.76-.69s0-.05,0-.05a.93.93,0,0,0-.68.4,1.87,1.87,0,0,1,.32-.42s0-.06,0,0a.8.8,0,0,0-.4.39,1,1,0,0,0-.16.54,0,0,0,0,0,0,0v0h0a5.24,5.24,0,0,0-3.8.5,3.68,3.68,0,0,0-2,2.95A2.06,2.06,0,0,0,43,26.15a3,3,0,0,0,.6.51,7.61,7.61,0,0,0,.75.51c1.87,1.08,4.31.6,6.26,1.52a.15.15,0,0,0,.13,0,.14.14,0,0,0,.07-.1l.16-.49L52,29l-1.7.66c.08-.22.15-.44.21-.67a.11.11,0,0,0-.11-.18A24.18,24.18,0,0,1,44.94,28a4.58,4.58,0,0,1-2.34-1.53,3.17,3.17,0,0,1-.38-2.53,6.29,6.29,0,0,1,1.6-2.71L44,21a7.16,7.16,0,0,1,5.68-1.79,1.44,1.44,0,0,0,.15.36.67.67,0,0,0,.78.31.09.09,0,0,0,0-.18c-.6.19-.71-.64-.79-1a1.29,1.29,0,0,0-.35-.72c-.26-.49-.59-.94-.83-1.45a3.83,3.83,0,0,1-.39-1.79,6.57,6.57,0,0,1,1.44-3.41.1.1,0,0,0,0-.13,4.72,4.72,0,0,0-1.76-.81c-.72-.23-1.44-.43-2.17-.61s-1.39-.32-2.09-.45A21.83,21.83,0,0,1,49,10.38a4,4,0,0,1,.81.37c.4.25.38.62.2,1a13.43,13.43,0,0,0-.71,1.6,4.38,4.38,0,0,0,.19,3.28,3.22,3.22,0,0,0,1.16,1.24c.57.36,1.39.75,1.39,1.53a.06.06,0,1,0,.12,0,1.12,1.12,0,0,0,0-.32A.9.9,0,0,0,52.7,19a.76.76,0,0,0,.36-.35l.48.26A3.84,3.84,0,0,1,55,20a.86.86,0,0,1,.06.91.76.76,0,0,1-.12.19l0,0a2.88,2.88,0,0,1-.35-.26s0,0,0,0a6.38,6.38,0,0,0,.52.52,1.37,1.37,0,0,1,.36.73,3.85,3.85,0,0,1-.21,1.71,3.33,3.33,0,0,0-.11,1.47,1.44,1.44,0,0,0,.27.62c.16.22.45.39.34.67a.78.78,0,0,0-.68-.17S55,26.55,55.08,26.56Zm-5.85-1.38a4.06,4.06,0,0,1-.13,1h0l-.13,0c-.39-.09-.32-.76-.23-1a1.29,1.29,0,0,1,.45-.64C49.17,24.7,49.23,25,49.23,25.18Zm6.56.38c0,.14-.06.3-.07.45a1.78,1.78,0,0,1-.32-.47,3,3,0,0,1,.08-1.82.79.79,0,0,0,.22-.06c0,.17.06.34.08.51a5.53,5.53,0,0,1,0,.71A3.83,3.83,0,0,1,55.79,25.56ZM56,27a.39.39,0,0,0-.06-.25.46.46,0,0,1,.3.11.44.44,0,0,1,.11.2A1.07,1.07,0,0,0,56,27Zm.47-.09a.52.52,0,0,0-.17-.22.48.48,0,0,0-.31-.08.35.35,0,0,0,0-.17.88.88,0,0,1,.29.07.61.61,0,0,1,.3.35Zm.51-2.9c-.06.39-.19.78-.22,1.18a1.07,1.07,0,0,0,.27.84.68.68,0,0,0,.34.19,1.84,1.84,0,0,1,.25.05c.15.08.15.18.16.31a1.06,1.06,0,0,0-.7-.15s0,0,0,.05a1.64,1.64,0,0,0,.38.1.55.55,0,0,1,.36.3,8.64,8.64,0,0,1-1,0,.78.78,0,0,0-.38-.52.59.59,0,0,0-.43-.08l-.07-.14a1.21,1.21,0,0,0,.1-.5,4.4,4.4,0,0,0,0-.81,5.34,5.34,0,0,0,0-.69,2.4,2.4,0,0,0-.13-.59l.15-.06c.21-.1.41-.22.61-.34l.27-.19.07,0A4.25,4.25,0,0,1,56.93,24Zm-.21-1.18a1.1,1.1,0,0,0-.06-.41,1.8,1.8,0,0,0-.28-.53,4.09,4.09,0,0,0-.39-.44.64.64,0,0,0-.25-.18,1.51,1.51,0,0,0,.11-.22l.15,0,.25.07a2.39,2.39,0,0,1,.49.28,1.51,1.51,0,0,1,.65.86Zm.71-.59a1.52,1.52,0,0,0-.64-.86,2.64,2.64,0,0,0-.49-.29,1.36,1.36,0,0,0-.42-.11c0-.1.07-.2.1-.3A1.9,1.9,0,0,1,57.1,21a1.63,1.63,0,0,1,.49.41,1.09,1.09,0,0,1,.19.49C57.67,22.05,57.55,22.16,57.43,22.27Zm.41-.41a1.29,1.29,0,0,0-.66-.85A1.84,1.84,0,0,0,56,20.67l0-.18h0a2.84,2.84,0,0,1,.31-.06,1.93,1.93,0,0,1,.34,0,5.43,5.43,0,0,1,.69.09,2.5,2.5,0,0,1,.65.17,1.94,1.94,0,0,1,.44.31A3.78,3.78,0,0,1,57.84,21.86Zm.63-.92a1,1,0,0,0-.4-.29,2.38,2.38,0,0,0-.69-.2c-.24,0-.47-.08-.71-.1a1.54,1.54,0,0,0-.64.06,1.61,1.61,0,0,0,0-.31,3.82,3.82,0,0,1,1.38-.17,2.45,2.45,0,0,1,0,.27.06.06,0,0,0,.12,0,2.45,2.45,0,0,0,0-.27,3.12,3.12,0,0,1,.53.11h0a.06.06,0,0,0,.1,0,1.18,1.18,0,0,1,.47.33A4.65,4.65,0,0,1,58.47,20.94Zm.25-.73a.74.74,0,0,1,0,.14,1.14,1.14,0,0,0-.46-.31,1.81,1.81,0,0,0,.12-.56,1.28,1.28,0,0,0,.21.14.74.74,0,0,0,.21.07A3,3,0,0,1,58.72,20.21Zm0-2.07a1,1,0,0,1-.4-.12,2,2,0,0,1-.3-.23,4,4,0,0,1-.12-.56,2,2,0,0,0,.37.34,1,1,0,0,0,.54.24A2,2,0,0,0,58.7,18.14Zm.12-.39a.49.49,0,0,1-.33-.09,1.28,1.28,0,0,1-.25-.15,2.44,2.44,0,0,1-.37-.35v0a2.83,2.83,0,0,1,0-.41c.15.1.29.19.42.29a1.66,1.66,0,0,0,.54.29,1.38,1.38,0,0,0,.35,0A1.1,1.1,0,0,0,58.82,17.75ZM62,17.3a2.09,2.09,0,0,0,.22-.2,1.12,1.12,0,0,1-.09.22c0,.05,0,.09-.07.13a.53.53,0,0,0-.15-.08ZM61.83,17a1.26,1.26,0,0,1,0,.28l-.15,0,0,0A.8.8,0,0,0,61.83,17Zm-.44-.43c0-.1,0-.21,0-.31l.21,0A1.14,1.14,0,0,1,61.39,16.6Zm-.25,0-.18.18-.08-.08a1.3,1.3,0,0,0-.5-.22c0-.08,0-.31-.14-.28s-.08.09-.11.13l-.08.08a4.21,4.21,0,0,1-.84-.3,2.73,2.73,0,0,1,.5,0h0a.5.5,0,0,1,0,.13.56.56,0,0,0,0,.12,0,0,0,0,0,.07,0c.1-.06.14-.16.23-.22a0,0,0,0,1,0,0,2.36,2.36,0,0,1,.38.1c0,.11,0,.27.13.3s.18-.11.24-.21c0,.12,0,.33.15.35s.21-.16.28-.29a2.81,2.81,0,0,0,0,.41s0,0,0,0l-.13.15c0-.1,0-.2,0-.3S61.16,16.54,61.14,16.57Zm0,.35-.11-.1.09-.09C61.14,16.8,61.14,16.86,61.15,16.92Zm-.87-.49-.11,0a.86.86,0,0,1,.07-.1h0v0ZM59.8,16H60s-.07.1-.11.14a.54.54,0,0,0,0-.11A.08.08,0,0,0,59.8,16Zm.76.15.2.05-.06.08c0,.06-.05.07-.07,0A.42.42,0,0,1,60.56,16.18Zm.4.08.22,0-.06.09c-.14.19-.1.11-.14,0S61,16.28,61,16.26Zm.44.58a1.09,1.09,0,0,1,0,.31L61.24,17Zm.36-.16c0-.11,0-.23,0-.34l.11,0,.12,0A1.68,1.68,0,0,1,61.76,16.68Zm.37.12a2.22,2.22,0,0,0,0-.37l.31.05A1.72,1.72,0,0,1,62.13,16.8Zm.51-.46a3,3,0,0,1-.84-.16,3.17,3.17,0,0,0-.69-.08,4.86,4.86,0,0,1-.84-.12,3.07,3.07,0,0,0-1.35,0,.09.09,0,0,0,0,.16,4.86,4.86,0,0,0,1.38.5,1.16,1.16,0,0,1,.64.35,2,2,0,0,0,.5.4l.23.09.15.05c.06,0,.19,0,.16.1s-.23.09-.3.09a1,1,0,0,1-.38-.09c-.22-.09-.42-.23-.64-.33A2.54,2.54,0,0,0,60,17.1a2.32,2.32,0,0,0-.59,0,1.25,1.25,0,0,1-.79-.06,5.17,5.17,0,0,1-.53-.39,2.32,2.32,0,0,0-.23-.14,2.84,2.84,0,0,1,.89-1.93l.26,0a4,4,0,0,1,1.52.43.29.29,0,0,1,0,.17,1.11,1.11,0,0,0,0,.25s0,0,.06,0a.35.35,0,0,0,.06-.37h0l.29.19a.29.29,0,0,1,0,.16c0,.08-.08.14-.1.22s0,0,0,0a.28.28,0,0,0,.18-.27s0-.05,0-.08l.19.1a.53.53,0,0,1,0,.12,1.21,1.21,0,0,0,0,.19s0,0,0,0,.09-.17.06-.28a.9.9,0,0,0,.22.06.22.22,0,0,1,0,.08c0,.06,0,.12,0,.18s0,0,0,0a.17.17,0,0,0,.12-.2l0-.08a2.71,2.71,0,0,1,.9.1.45.45,0,0,1,.27.34C62.92,16.25,62.84,16.32,62.64,16.34Z" transform="translate(-12.5 -6)"/><path class="cls-6" d="M60,15.37c-.24-.06-.34-.31-.6-.34a.48.48,0,0,0-.44.16s0,0-.07,0,0-.15.09-.19a.77.77,0,0,1,.3-.11,0,0,0,0,0,0,0c-.19-.05-.52.07-.53.3a.19.19,0,0,0,.15.2H59l0,0a.36.36,0,0,0,0,.25c0,.09.14.22.25.23a0,0,0,0,0,0,0c0-.07-.1-.11-.15-.17a.33.33,0,0,1,0-.32.33.33,0,0,0,.24.32.5.5,0,0,0,.35-.07.45.45,0,0,1-.21.22,0,0,0,0,0,0,.05.3.3,0,0,0,.27-.28.18.18,0,0,0,.21,0A0,0,0,0,0,60,15.37Zm-.35,0s-.09.06-.11.07a.23.23,0,0,1-.16,0,.26.26,0,0,1-.15-.2h.17a.14.14,0,0,0,0,.15.08.08,0,0,0,.08,0l0,0v0h0v0l.11.08Z" transform="translate(-12.5 -6)"/><path class="cls-6" d="M59.78,15a1,1,0,0,0-.34-.1s0,0,0,0a1,1,0,0,1,.39.2.65.65,0,0,0,.24.15s0,0,0,0A3.76,3.76,0,0,0,59.78,15Z" transform="translate(-12.5 -6)"/><path class="cls-6" d="M62.39,16l0,0a.12.12,0,0,0,.15.13.1.1,0,0,0,0-.18A.1.1,0,0,0,62.39,16Z" transform="translate(-12.5 -6)"/><path class="cls-6" d="M62.37,15.76s0,.05,0,.07a.84.84,0,0,1,.17.05.48.48,0,0,1,.11.09s0,0,0,0S62.49,15.75,62.37,15.76Z" transform="translate(-12.5 -6)"/><line class="cls-7" y1="26.5" x2="75" y2="26.5"/><path class="cls-2" d="M39.11,45a.36.36,0,0,0-.48.16l-.41.79-.39-.79a.34.34,0,0,0-.31-.19.35.35,0,0,0-.32.19l-.39.78-.39-.78a.33.33,0,0,0-.33-.19h0a.34.34,0,0,0-.32.26.39.39,0,0,0-.19-.23.36.36,0,0,0-.47.16l-.39.78-.39-.78a.35.35,0,0,0-.62,0l-.39.78-.39-.78a.36.36,0,0,0-.47-.16.39.39,0,0,0-.19.23.34.34,0,0,0-.32-.26h0a.33.33,0,0,0-.33.19l-.39.78-.39-.78a.35.35,0,0,0-.63,0l-.39.79-.41-.79a.35.35,0,1,0-.63.32l.73,1.4a.35.35,0,0,0,.63,0l.38-.78.39.78a.35.35,0,0,0,.63,0l.66-1.31a.31.31,0,0,0,.09-.17l0,.07.7,1.41a.35.35,0,0,0,.63,0l.39-.78.39.78a.35.35,0,0,0,.63,0l.7-1.41,0-.07a.31.31,0,0,0,.09.17l.66,1.31a.35.35,0,0,0,.63,0l.39-.78.38.78a.35.35,0,0,0,.63,0l.73-1.4A.36.36,0,0,0,39.11,45Z" transform="translate(-12.5 -6)"/><path class="cls-2" d="M39.56,43.73a6,6,0,0,0-11.12,0,1.09,1.09,0,0,0-.44.86v2.82a1.09,1.09,0,0,0,.44.86,6,6,0,0,0,11.12,0,1.09,1.09,0,0,0,.44-.86V44.59A1.09,1.09,0,0,0,39.56,43.73Zm-.87-.19h-1.8a6.79,6.79,0,0,0-1-2.4l-.1-.12A5.37,5.37,0,0,1,38.69,43.54Zm-4.34-2.78c1,.32,1.57,1.78,1.82,2.78H34.35Zm-.7,0v2.78H31.83a6,6,0,0,1,.86-2A2.15,2.15,0,0,1,33.65,40.76ZM32.22,41l-.1.12a6.79,6.79,0,0,0-1,2.4h-1.8A5.37,5.37,0,0,1,32.22,41Zm-2.91,7.44h1.8A6.43,6.43,0,0,0,32.22,51,5.37,5.37,0,0,1,29.31,48.46Zm4.34,2.78c-1-.32-1.57-1.78-1.82-2.78h1.82Zm.7,0V48.46h1.82C35.91,49.46,35.31,50.92,34.35,51.24ZM35.78,51a6.49,6.49,0,0,0,1.11-2.52h1.8A5.37,5.37,0,0,1,35.78,51Zm3.52-3.57a.35.35,0,0,1-.35.35h-9.9a.35.35,0,0,1-.35-.35V44.59a.35.35,0,0,1,.35-.35H39a.35.35,0,0,1,.35.35Z" transform="translate(-12.5 -6)"/><path class="cls-2" d="M71.11,45a.36.36,0,0,0-.48.16l-.41.79-.39-.79a.34.34,0,0,0-.31-.19.35.35,0,0,0-.32.19l-.39.78-.39-.78a.33.33,0,0,0-.33-.19h0a.34.34,0,0,0-.32.26.39.39,0,0,0-.19-.23.36.36,0,0,0-.47.16l-.39.78-.39-.78a.35.35,0,0,0-.62,0l-.39.78-.39-.78a.36.36,0,0,0-.47-.16.39.39,0,0,0-.19.23.34.34,0,0,0-.32-.26h0a.33.33,0,0,0-.33.19l-.39.78-.39-.78a.35.35,0,0,0-.63,0l-.39.79-.41-.79a.35.35,0,1,0-.63.32l.73,1.4a.35.35,0,0,0,.63,0l.38-.78.39.78a.35.35,0,0,0,.63,0l.66-1.31a.31.31,0,0,0,.09-.17l0,.07.7,1.41a.35.35,0,0,0,.63,0l.39-.78.39.78a.35.35,0,0,0,.63,0l.7-1.41,0-.07a.31.31,0,0,0,.09.17l.66,1.31a.35.35,0,0,0,.63,0l.39-.78.38.78a.35.35,0,0,0,.63,0l.73-1.4A.36.36,0,0,0,71.11,45Z" transform="translate(-12.5 -6)"/><path class="cls-2" d="M71.56,43.73a6,6,0,0,0-11.12,0,1.09,1.09,0,0,0-.44.86v2.82a1.09,1.09,0,0,0,.44.86,6,6,0,0,0,11.12,0,1.09,1.09,0,0,0,.44-.86V44.59A1.09,1.09,0,0,0,71.56,43.73Zm-.87-.19h-1.8a6.79,6.79,0,0,0-1-2.4l-.1-.12A5.37,5.37,0,0,1,70.69,43.54Zm-4.34-2.78c1,.32,1.57,1.78,1.82,2.78H66.35Zm-.7,0v2.78H63.83a6,6,0,0,1,.86-2A2.15,2.15,0,0,1,65.65,40.76ZM64.22,41l-.1.12a6.79,6.79,0,0,0-1,2.4h-1.8A5.37,5.37,0,0,1,64.22,41Zm-2.91,7.44h1.8A6.43,6.43,0,0,0,64.22,51,5.37,5.37,0,0,1,61.31,48.46Zm4.34,2.78c-1-.32-1.57-1.78-1.82-2.78h1.82Zm.7,0V48.46h1.82C67.91,49.46,67.31,50.92,66.35,51.24ZM67.78,51a6.49,6.49,0,0,0,1.11-2.52h1.8A5.37,5.37,0,0,1,67.78,51Zm3.52-3.57a.35.35,0,0,1-.35.35h-9.9a.35.35,0,0,1-.35-.35V44.59a.35.35,0,0,1,.35-.35H71a.35.35,0,0,1,.35.35Z" transform="translate(-12.5 -6)"/><path class="cls-8" d="M23.47,56.86C27.8,58.4,32.36,59.83,37,59c5.1-.94,9.7-3.91,15.08-3.69,5,.2,9.32,3.32,14.35,3.67,4.2.29,8.67.36,12.35-1.89.82-.5.07-1.8-.76-1.3-4.4,2.7-11.61,2.22-16.39.82-3.82-1.12-7-3-11.13-2.74A39.07,39.07,0,0,0,40.13,56.5c-5.69,2-10.77.86-16.26-1.09-.91-.32-1.3,1.12-.4,1.45Z" transform="translate(-12.5 -6)"/><path class="cls-8" d="M22.47,60.86C26.8,62.4,31.36,63.83,36,63c5.1-.94,9.7-3.91,15.08-3.69,5,.2,9.32,3.32,14.35,3.67,4.2.29,8.67.36,12.35-1.89.82-.5.07-1.8-.76-1.3-4.4,2.7-11.61,2.22-16.39.82-3.82-1.12-7-3-11.13-2.74A39.07,39.07,0,0,0,39.13,60.5c-5.69,2-10.77.86-16.26-1.09-.91-.32-1.3,1.12-.4,1.45Z" transform="translate(-12.5 -6)"/><path class="cls-8" d="M22.47,64.86C26.8,66.4,31.36,67.83,36,67c5.1-.94,9.7-3.91,15.08-3.69,5,.2,9.32,3.32,14.35,3.67,4.2.29,8.67.36,12.35-1.89.82-.5.07-1.8-.76-1.3-4.4,2.7-11.61,2.22-16.39.82-3.82-1.12-7-3-11.13-2.74A39.07,39.07,0,0,0,39.13,64.5c-5.69,2-10.77.86-16.26-1.09-.91-.32-1.3,1.12-.4,1.45Z" transform="translate(-12.5 -6)"/><path class="cls-9" d="M59.07,72.11a14.69,14.69,0,0,1-2.94-.59,5.31,5.31,0,0,0-3.73.18.33.33,0,0,0,.26.6,4.73,4.73,0,0,1,3.28-.15,15.26,15.26,0,0,0,3.08.62h0a.33.33,0,0,0,0-.66Z" transform="translate(-12.5 -6)"/><path class="cls-9" d="M59.07,73.51a14.69,14.69,0,0,1-2.94-.59,5.31,5.31,0,0,0-3.73.18.32.32,0,0,0-.17.43.33.33,0,0,0,.43.17,4.62,4.62,0,0,1,3.28-.15,15.19,15.19,0,0,0,3.08.61h0a.33.33,0,0,0,0-.65Z" transform="translate(-12.5 -6)"/><path class="cls-9" d="M59.07,80.49a13.4,13.4,0,0,1-2.94-.59,5.31,5.31,0,0,0-3.73.18.33.33,0,0,0,.26.61,4.68,4.68,0,0,1,3.28-.16,14.6,14.6,0,0,0,3.08.62h0a.32.32,0,0,0,.32-.3.33.33,0,0,0-.3-.36Z" transform="translate(-12.5 -6)"/><path class="cls-9" d="M59.07,81.89a14.69,14.69,0,0,1-2.94-.59,5.31,5.31,0,0,0-3.73.18.33.33,0,0,0,.26.6,4.73,4.73,0,0,1,3.28-.15,15.26,15.26,0,0,0,3.08.62h0a.33.33,0,0,0,0-.66Z" transform="translate(-12.5 -6)"/><path class="cls-9" d="M59.07,74.9a13.4,13.4,0,0,1-2.94-.59,5.31,5.31,0,0,0-3.73.18.33.33,0,0,0,.26.61,4.68,4.68,0,0,1,3.28-.16,14.6,14.6,0,0,0,3.08.62h0a.32.32,0,0,0,.32-.3.33.33,0,0,0-.3-.36Z" transform="translate(-12.5 -6)"/><path class="cls-9" d="M59.07,77.7a14.69,14.69,0,0,1-2.94-.59,5.31,5.31,0,0,0-3.73.18.33.33,0,0,0,.26.6,4.68,4.68,0,0,1,3.28-.15,14.53,14.53,0,0,0,3.08.61h0a.33.33,0,0,0,.32-.31.32.32,0,0,0-.3-.35Z" transform="translate(-12.5 -6)"/><path class="cls-9" d="M59.07,76.3a14,14,0,0,1-2.94-.59,5.31,5.31,0,0,0-3.73.18.33.33,0,0,0-.17.43.32.32,0,0,0,.43.17,4.73,4.73,0,0,1,3.28-.15A14.6,14.6,0,0,0,59,77h0a.32.32,0,0,0,.32-.31.32.32,0,0,0-.3-.35Z" transform="translate(-12.5 -6)"/><path class="cls-9" d="M59.07,79.1a14.69,14.69,0,0,1-2.94-.59,5.36,5.36,0,0,0-3.73.17.34.34,0,0,0-.17.44.33.33,0,0,0,.43.17,4.62,4.62,0,0,1,3.28-.15,15.19,15.19,0,0,0,3.08.61h0a.33.33,0,0,0,0-.65Z" transform="translate(-12.5 -6)"/><path class="cls-9" d="M43,72.77h0a15.26,15.26,0,0,0,3.08-.62,4.73,4.73,0,0,1,3.28.15.32.32,0,0,0,.43-.17.32.32,0,0,0-.17-.43,5.31,5.31,0,0,0-3.73-.18,14.69,14.69,0,0,1-2.94.59.33.33,0,0,0,0,.66Z" transform="translate(-12.5 -6)"/><path class="cls-9" d="M43,74.16h0a15.19,15.19,0,0,0,3.08-.61,4.62,4.62,0,0,1,3.28.15.33.33,0,0,0,.43-.17.32.32,0,0,0-.17-.43,5.31,5.31,0,0,0-3.73-.18,14.69,14.69,0,0,1-2.94.59.33.33,0,0,0,0,.65Z" transform="translate(-12.5 -6)"/><path class="cls-9" d="M43,81.15h0a14.6,14.6,0,0,0,3.08-.62,4.68,4.68,0,0,1,3.28.16.33.33,0,0,0,.43-.18.32.32,0,0,0-.17-.43,5.31,5.31,0,0,0-3.73-.18,13.4,13.4,0,0,1-2.94.59.33.33,0,0,0-.3.36A.32.32,0,0,0,43,81.15Z" transform="translate(-12.5 -6)"/><path class="cls-9" d="M43,82.55h0a15.26,15.26,0,0,0,3.08-.62,4.73,4.73,0,0,1,3.28.15.32.32,0,0,0,.43-.17.32.32,0,0,0-.17-.43,5.31,5.31,0,0,0-3.73-.18,14.69,14.69,0,0,1-2.94.59.33.33,0,0,0,0,.66Z" transform="translate(-12.5 -6)"/><path class="cls-9" d="M43,75.56h0a14.6,14.6,0,0,0,3.08-.62,4.68,4.68,0,0,1,3.28.16.33.33,0,0,0,.43-.18.32.32,0,0,0-.17-.43,5.31,5.31,0,0,0-3.73-.18,13.4,13.4,0,0,1-2.94.59.33.33,0,0,0-.3.36.32.32,0,0,0,.32.3Z" transform="translate(-12.5 -6)"/><path class="cls-9" d="M43,78.36h0a14.53,14.53,0,0,0,3.08-.61,4.68,4.68,0,0,1,3.28.15.32.32,0,0,0,.43-.17.32.32,0,0,0-.17-.43,5.31,5.31,0,0,0-3.73-.18,14.69,14.69,0,0,1-2.94.59.32.32,0,0,0-.3.35A.33.33,0,0,0,43,78.36Z" transform="translate(-12.5 -6)"/><path class="cls-9" d="M43,77h0a14.6,14.6,0,0,0,3.08-.62,4.73,4.73,0,0,1,3.28.15.33.33,0,1,0,.26-.6,5.31,5.31,0,0,0-3.73-.18,14,14,0,0,1-2.94.59.32.32,0,0,0-.3.35A.32.32,0,0,0,43,77Z" transform="translate(-12.5 -6)"/><path class="cls-9" d="M43,79.75h0a15.19,15.19,0,0,0,3.08-.61,4.62,4.62,0,0,1,3.28.15.33.33,0,0,0,.26-.61,5.36,5.36,0,0,0-3.73-.17,14.69,14.69,0,0,1-2.94.59.33.33,0,0,0,0,.65Z" transform="translate(-12.5 -6)"/><path class="cls-9" d="M61.42,70.87H60.9v-.3a.72.72,0,0,0-.77-.72,10.19,10.19,0,0,1-3.22-.38.33.33,0,0,0-.4.24.35.35,0,0,0,.24.4,10.88,10.88,0,0,0,3.43.4.06.06,0,0,1,.07.06V83.84a11.86,11.86,0,0,1-4.12-.59,5.45,5.45,0,0,0-4.8.78V70.89a4.72,4.72,0,0,1,3.92-1.17.32.32,0,0,0,.37-.27.33.33,0,0,0-.27-.38A5.3,5.3,0,0,0,51,70.3a5.37,5.37,0,0,0-5.13-1,11.13,11.13,0,0,1-4,.6.73.73,0,0,0-.78.72v.3h-.52a.8.8,0,0,0-.8.8V85a.8.8,0,0,0,.8.81H49.1a.34.34,0,0,1,.3.18,1.78,1.78,0,0,0,3.21,0,.31.31,0,0,1,.29-.18h8.52a.8.8,0,0,0,.8-.81V78.77a.33.33,0,0,0-.66,0V85a.15.15,0,0,1-.14.15H52.9a1,1,0,0,0-.89.55,1.12,1.12,0,0,1-2,0,1,1,0,0,0-.89-.55H40.58a.15.15,0,0,1-.14-.15V71.67a.14.14,0,0,1,.14-.14h.52V84.12a.31.31,0,0,0,.24.31c.06,0,1.57.4,4.72-.55a4.72,4.72,0,0,1,4.16.64,1.35,1.35,0,0,0,1.56,0,4.73,4.73,0,0,1,4.16-.64c3.15,1,4.66.57,4.72.55a.31.31,0,0,0,.24-.31V71.53h.52a.14.14,0,0,1,.14.14v5.56a.33.33,0,0,0,.66,0V71.67A.8.8,0,0,0,61.42,70.87Zm-19.67-.3a.06.06,0,0,1,.07-.06,12,12,0,0,0,4.24-.63,4.7,4.7,0,0,1,4.61,1V84a5.45,5.45,0,0,0-4.8-.78l-.55.16h0a11,11,0,0,1-3.56.43V70.57Z" transform="translate(-12.5 -6)"/></svg>