<svg id="Layer_1" data-name="Layer 1" xmlns="http://www.w3.org/2000/svg" viewBox="0 0 512 512"><defs><style>.cls-1{fill:#fcfcfc;}</style></defs><title>llamada-telefonica-white</title><path class="cls-1" d="M437,75C337-25,174.91-25,75,75S-25,337.09,75,437.05s262.08,99.93,362-.06A256,256,0,0,0,437,75ZM387.7,356.61l0,0v-.09l-13,12.89a68.25,68.25,0,0,1-64.43,18.43,227.07,227.07,0,0,1-65.88-29.52,304.45,304.45,0,0,1-52-41.9,306,306,0,0,1-38.83-47.11,238.56,238.56,0,0,1-29.18-59,68.24,68.24,0,0,1,17.06-69.71l15.19-15.19a10.84,10.84,0,0,1,15.33,0l0,0,48,48a10.85,10.85,0,0,1,0,15.33l0,0-28.16,28.16a23,23,0,0,0-2.39,29.87,328.09,328.09,0,0,0,33.71,39.34,326,326,0,0,0,44.37,37.29A23.12,23.12,0,0,0,297,320.8l27.22-27.65a10.85,10.85,0,0,1,15.33,0l0,0,48.05,48.13A10.84,10.84,0,0,1,387.7,356.61Z" transform="translate(0 0)"/></svg>